<svg id="Camada_1" data-name="Camada 1" xmlns="http://www.w3.org/2000/svg" viewBox="0 0 133.1 193.15"><defs><style>.cls-1{opacity:0.75;}.cls-2{fill:#fcfcfc;}</style></defs><title>lock</title><g class="cls-1"><path class="cls-2" d="M152.44,83.91V55.62A52.21,52.21,0,0,0,140,21.4a51.51,51.51,0,0,0-39.4-18.34A52.22,52.22,0,0,0,48.46,55.62V83.91H33.9v112.3H167V83.91ZM109.7,140.68v25H92.09v-25a14.86,14.86,0,0,1,9-26.66h.17a14.63,14.63,0,0,1,14.63,14.68A15.31,15.31,0,0,1,109.7,140.68Zm17.79-56.77H71.34v-31c0-16.67,11.4-30.24,28.07-30.24s28.08,13.57,28.08,30.24Z" transform="translate(-33.9 -3.06)"/></g></svg>