<svg xmlns="http://www.w3.org/2000/svg" xmlns:xlink="http://www.w3.org/1999/xlink" viewBox="0 0 278.76 369.38"><defs><style>.cls-1{isolation:isolate;}.cls-2{fill:url(#_ÂÁ_Ï_ÌÌ_È_ËÂÌÚ_46);}.cls-3{fill:url(#_ÂÁ_Ï_ÌÌ_È_ËÂÌÚ_46-2);}.cls-4{fill:url(#_ÂÁ_Ï_ÌÌ_È_ËÂÌÚ_28);}.cls-5{fill:url(#_ÂÁ_Ï_ÌÌ_È_ËÂÌÚ_28-2);}.cls-11,.cls-25,.cls-41,.cls-42,.cls-47,.cls-6,.cls-8{opacity:0.3;}.cls-11,.cls-14,.cls-25,.cls-27,.cls-32,.cls-41,.cls-42,.cls-45,.cls-47,.cls-50,.cls-6,.cls-8{mix-blend-mode:multiply;}.cls-6{fill:url(#_ÂÁ_Ï_ÌÌ_È_ËÂÌÚ_153);}.cls-7{fill:#fff;}.cls-8{fill:url(#_ÂÁ_Ï_ÌÌ_È_ËÂÌÚ_153-2);}.cls-9{fill:url(#_ÂÁ_Ï_ÌÌ_È_ËÂÌÚ_46-3);}.cls-10{fill:url(#_ÂÁ_Ï_ÌÌ_È_ËÂÌÚ_28-3);}.cls-11{fill:url(#_ÂÁ_Ï_ÌÌ_È_ËÂÌÚ_153-3);}.cls-12{fill:url(#_ÂÁ_Ï_ÌÌ_È_ËÂÌÚ_46-4);}.cls-13{fill:url(#_ÂÁ_Ï_ÌÌ_È_ËÂÌÚ_28-4);}.cls-14,.cls-27,.cls-32,.cls-39,.cls-40,.cls-45,.cls-50{opacity:0.5;}.cls-14{fill:url(#_ÂÁ_Ï_ÌÌ_È_ËÂÌÚ_416);}.cls-15{fill:url(#_ÂÁ_Ï_ÌÌ_È_ËÂÌÚ_46-5);}.cls-16{fill:url(#_ÂÁ_Ï_ÌÌ_È_ËÂÌÚ_264);}.cls-17{fill:url(#_ÂÁ_Ï_ÌÌ_È_ËÂÌÚ_28-5);}.cls-18{fill:url(#_ÂÁ_Ï_ÌÌ_È_ËÂÌÚ_264-2);}.cls-19{fill:url(#_ÂÁ_Ï_ÌÌ_È_ËÂÌÚ_28-6);}.cls-20{fill:url(#_ÂÁ_Ï_ÌÌ_È_ËÂÌÚ_17);}.cls-21{fill:url(#_ÂÁ_Ï_ÌÌ_È_ËÂÌÚ_17-2);}.cls-22{fill:url(#_ÂÁ_Ï_ÌÌ_È_ËÂÌÚ_46-6);}.cls-23{fill:#dfe3fb;}.cls-24{fill:url(#_ÂÁ_Ï_ÌÌ_È_ËÂÌÚ_132);}.cls-25{fill:url(#_ÂÁ_Ï_ÌÌ_È_ËÂÌÚ_153-4);}.cls-26{fill:url(#_ÂÁ_Ï_ÌÌ_È_ËÂÌÚ_36);}.cls-27{fill:url(#_ÂÁ_Ï_ÌÌ_È_ËÂÌÚ_416-2);}.cls-28{fill:url(#_ÂÁ_Ï_ÌÌ_È_ËÂÌÚ_73);}.cls-29{fill:url(#_ÂÁ_Ï_ÌÌ_È_ËÂÌÚ_46-7);}.cls-30{fill:url(#_ÂÁ_Ï_ÌÌ_È_ËÂÌÚ_36-2);}.cls-31{fill:url(#_ÂÁ_Ï_ÌÌ_È_ËÂÌÚ_46-8);}.cls-32{fill:url(#_ÂÁ_Ï_ÌÌ_È_ËÂÌÚ_416-3);}.cls-33{fill:url(#_ÂÁ_Ï_ÌÌ_È_ËÂÌÚ_28-7);}.cls-34{fill:url(#_ÂÁ_Ï_ÌÌ_È_ËÂÌÚ_17-3);}.cls-35{fill:url(#_ÂÁ_Ï_ÌÌ_È_ËÂÌÚ_17-4);}.cls-36{fill:#2f95cd;}.cls-37{fill:url(#_ÂÁ_Ï_ÌÌ_È_ËÂÌÚ_28-8);}.cls-38{fill:url(#_ÂÁ_Ï_ÌÌ_È_ËÂÌÚ_8);}.cls-39,.cls-40,.cls-46,.cls-54,.cls-55,.cls-56,.cls-57{mix-blend-mode:screen;}.cls-39{fill:url(#_ÂÁ_Ï_ÌÌ_È_ËÂÌÚ_54);}.cls-40{fill:url(#_ÂÁ_Ï_ÌÌ_È_ËÂÌÚ_54-2);}.cls-41{fill:url(#_ÂÁ_Ï_ÌÌ_È_ËÂÌÚ_153-5);}.cls-42{fill:url(#_ÂÁ_Ï_ÌÌ_È_ËÂÌÚ_153-6);}.cls-43{fill:url(#_ÂÁ_Ï_ÌÌ_È_ËÂÌÚ_28-9);}.cls-44{fill:url(#_ÂÁ_Ï_ÌÌ_È_ËÂÌÚ_91);}.cls-45{fill:url(#_ÂÁ_Ï_ÌÌ_È_ËÂÌÚ_416-4);}.cls-46,.cls-55,.cls-56,.cls-57{opacity:0.72;}.cls-46{fill:url(#_ÂÁ_Ï_ÌÌ_È_ËÂÌÚ_143);}.cls-47{fill:url(#_ÂÁ_Ï_ÌÌ_È_ËÂÌÚ_153-7);}.cls-48{fill:url(#_ÂÁ_Ï_ÌÌ_È_ËÂÌÚ_46-9);}.cls-49{fill:url(#_ÂÁ_Ï_ÌÌ_È_ËÂÌÚ_28-10);}.cls-50{fill:url(#_ÂÁ_Ï_ÌÌ_È_ËÂÌÚ_416-5);}.cls-51{fill:url(#_ÂÁ_Ï_ÌÌ_È_ËÂÌÚ_46-10);}.cls-52{fill:url(#_ÂÁ_Ï_ÌÌ_È_ËÂÌÚ_28-11);}.cls-53{fill:url(#_ÂÁ_Ï_ÌÌ_È_ËÂÌÚ_65);}.cls-54{opacity:0.2;fill:url(#_ÂÁ_Ï_ÌÌ_È_ËÂÌÚ_126);}.cls-55{fill:url(#_ÂÁ_Ï_ÌÌ_È_ËÂÌÚ_134);}.cls-56{fill:url(#_ÂÁ_Ï_ÌÌ_È_ËÂÌÚ_134-2);}.cls-57{fill:url(#_ÂÁ_Ï_ÌÌ_È_ËÂÌÚ_143-2);}.cls-58{fill:url(#_ÂÁ_Ï_ÌÌ_È_ËÂÌÚ_46-11);}</style><linearGradient id="_ÂÁ_Ï_ÌÌ_È_ËÂÌÚ_46" x1="104.53" y1="369.27" x2="113.24" y2="299.92" gradientUnits="userSpaceOnUse"><stop offset="0" stop-color="#cbc1f7"/><stop offset="1" stop-color="#e8dcf7"/></linearGradient><linearGradient id="_ÂÁ_Ï_ÌÌ_È_ËÂÌÚ_46-2" x1="166.89" y1="379.07" x2="178.13" y2="289.61" xlink:href="#_ÂÁ_Ï_ÌÌ_È_ËÂÌÚ_46"/><linearGradient id="_ÂÁ_Ï_ÌÌ_È_ËÂÌÚ_28" x1="111.69" y1="324.27" x2="111.69" y2="296.93" gradientUnits="userSpaceOnUse"><stop offset="0" stop-color="#be9dea"/><stop offset="1" stop-color="#9e8cef"/></linearGradient><linearGradient id="_ÂÁ_Ï_ÌÌ_È_ËÂÌÚ_28-2" x1="175.26" y1="324.9" x2="175.26" y2="292.39" xlink:href="#_ÂÁ_Ï_ÌÌ_È_ËÂÌÚ_28"/><linearGradient id="_ÂÁ_Ï_ÌÌ_È_ËÂÌÚ_153" x1="111.76" y1="370.17" x2="111.76" y2="297.16" gradientUnits="userSpaceOnUse"><stop offset="0" stop-color="#9d68c2"/><stop offset="1" stop-color="#ccedff"/></linearGradient><linearGradient id="_ÂÁ_Ï_ÌÌ_È_ËÂÌÚ_153-2" x1="175.4" y1="376.96" x2="175.4" y2="292.14" xlink:href="#_ÂÁ_Ï_ÌÌ_È_ËÂÌÚ_153"/><linearGradient id="_ÂÁ_Ï_ÌÌ_È_ËÂÌÚ_46-3" x1="63.17" y1="306.08" x2="78.18" y2="186.51" xlink:href="#_ÂÁ_Ï_ÌÌ_È_ËÂÌÚ_46"/><linearGradient id="_ÂÁ_Ï_ÌÌ_È_ËÂÌÚ_28-3" x1="54.37" y1="304.94" x2="54.37" y2="285.93" xlink:href="#_ÂÁ_Ï_ÌÌ_È_ËÂÌÚ_28"/><linearGradient id="_ÂÁ_Ï_ÌÌ_È_ËÂÌÚ_153-3" x1="69.3" y1="303.81" x2="69.3" y2="203.34" xlink:href="#_ÂÁ_Ï_ÌÌ_È_ËÂÌÚ_153"/><linearGradient id="_ÂÁ_Ï_ÌÌ_È_ËÂÌÚ_46-4" x1="49.8" y1="356.68" x2="57.98" y2="291.54" xlink:href="#_ÂÁ_Ï_ÌÌ_È_ËÂÌÚ_46"/><linearGradient id="_ÂÁ_Ï_ÌÌ_È_ËÂÌÚ_28-4" x1="62.64" y1="356.34" x2="62.64" y2="298.07" xlink:href="#_ÂÁ_Ï_ÌÌ_È_ËÂÌÚ_28"/><linearGradient id="_ÂÁ_Ï_ÌÌ_È_ËÂÌÚ_416" x1="61.91" y1="338.3" x2="61.91" y2="315.77" gradientUnits="userSpaceOnUse"><stop offset="0" stop-color="#8da4e5"/><stop offset="1" stop-color="#755cbb"/></linearGradient><linearGradient id="_ÂÁ_Ï_ÌÌ_È_ËÂÌÚ_46-5" x1="63.42" y1="337.24" x2="68.2" y2="299.18" xlink:href="#_ÂÁ_Ï_ÌÌ_È_ËÂÌÚ_46"/><linearGradient id="_ÂÁ_Ï_ÌÌ_È_ËÂÌÚ_264" x1="470.55" y1="89.33" x2="470.55" y2="20.36" gradientTransform="matrix(-1, 0, 0, 1, 543.46, 0)" gradientUnits="userSpaceOnUse"><stop offset="0" stop-color="#b9acf4"/><stop offset="1" stop-color="#e1d1f5"/></linearGradient><linearGradient id="_ÂÁ_Ï_ÌÌ_È_ËÂÌÚ_28-5" x1="67.98" y1="63.27" x2="67.98" y2="20.36" xlink:href="#_ÂÁ_Ï_ÌÌ_È_ËÂÌÚ_28"/><linearGradient id="_ÂÁ_Ï_ÌÌ_È_ËÂÌÚ_264-2" x1="215.18" y1="89.33" x2="215.18" y2="20.36" gradientTransform="matrix(1, 0, 0, 1, 0, 0)" xlink:href="#_ÂÁ_Ï_ÌÌ_È_ËÂÌÚ_264"/><linearGradient id="_ÂÁ_Ï_ÌÌ_È_ËÂÌÚ_28-6" x1="220.19" y1="57.85" x2="220.19" y2="20.35" xlink:href="#_ÂÁ_Ï_ÌÌ_È_ËÂÌÚ_28"/><linearGradient id="_ÂÁ_Ï_ÌÌ_È_ËÂÌÚ_17" x1="229.51" y1="92.63" x2="229.51" y2="24.86" gradientUnits="userSpaceOnUse"><stop offset="0" stop-color="#45ffcd"/><stop offset="1" stop-color="#22e0ff"/></linearGradient><linearGradient id="_ÂÁ_Ï_ÌÌ_È_ËÂÌÚ_17-2" x1="484.88" y1="92.63" x2="484.88" y2="24.86" gradientTransform="matrix(-1, 0, 0, 1, 543.46, 0)" xlink:href="#_ÂÁ_Ï_ÌÌ_È_ËÂÌÚ_17"/><linearGradient id="_ÂÁ_Ï_ÌÌ_È_ËÂÌÚ_46-6" x1="136.61" y1="187.15" x2="158.54" y2="12.57" xlink:href="#_ÂÁ_Ï_ÌÌ_È_ËÂÌÚ_46"/><linearGradient id="_ÂÁ_Ï_ÌÌ_È_ËÂÌÚ_132" x1="143.76" y1="139.29" x2="143.76" y2="17.13" gradientUnits="userSpaceOnUse"><stop offset="0" stop-color="#0665bd"/><stop offset="1" stop-color="#1a1f77"/></linearGradient><linearGradient id="_ÂÁ_Ï_ÌÌ_È_ËÂÌÚ_153-4" x1="144.36" y1="185.54" x2="144.36" y2="81.48" xlink:href="#_ÂÁ_Ï_ÌÌ_È_ËÂÌÚ_153"/><linearGradient id="_ÂÁ_Ï_ÌÌ_È_ËÂÌÚ_36" x1="74.23" y1="172.01" x2="209.83" y2="172.01" gradientUnits="userSpaceOnUse"><stop offset="0" stop-color="#8879ea"/><stop offset="1" stop-color="#9e8cef"/></linearGradient><linearGradient id="_ÂÁ_Ï_ÌÌ_È_ËÂÌÚ_416-2" x1="141.83" y1="178.05" x2="141.83" y2="158.51" xlink:href="#_ÂÁ_Ï_ÌÌ_È_ËÂÌÚ_416"/><linearGradient id="_ÂÁ_Ï_ÌÌ_È_ËÂÌÚ_73" x1="141.49" y1="175.29" x2="144.03" y2="155.02" gradientUnits="userSpaceOnUse"><stop offset="0" stop-color="#5e36cc"/><stop offset="1" stop-color="#6c4a96"/></linearGradient><linearGradient id="_ÂÁ_Ï_ÌÌ_È_ËÂÌÚ_46-7" x1="135.46" y1="322.07" x2="154.51" y2="170.4" xlink:href="#_ÂÁ_Ï_ÌÌ_È_ËÂÌÚ_46"/><linearGradient id="_ÂÁ_Ï_ÌÌ_È_ËÂÌÚ_36-2" x1="176.33" y1="204.86" x2="194.38" y2="204.86" xlink:href="#_ÂÁ_Ï_ÌÌ_È_ËÂÌÚ_36"/><linearGradient id="_ÂÁ_Ï_ÌÌ_È_ËÂÌÚ_46-8" x1="214.67" y1="218.3" x2="226.53" y2="123.88" xlink:href="#_ÂÁ_Ï_ÌÌ_È_ËÂÌÚ_46"/><linearGradient id="_ÂÁ_Ï_ÌÌ_È_ËÂÌÚ_416-3" x1="72.61" y1="161.41" x2="72.61" y2="133.99" xlink:href="#_ÂÁ_Ï_ÌÌ_È_ËÂÌÚ_416"/><linearGradient id="_ÂÁ_Ï_ÌÌ_È_ËÂÌÚ_28-7" x1="254.75" y1="160.21" x2="254.75" y2="126.2" xlink:href="#_ÂÁ_Ï_ÌÌ_È_ËÂÌÚ_28"/><linearGradient id="_ÂÁ_Ï_ÌÌ_È_ËÂÌÚ_17-3" x1="181.2" y1="77.92" x2="181.2" y2="48.63" xlink:href="#_ÂÁ_Ï_ÌÌ_È_ËÂÌÚ_17"/><linearGradient id="_ÂÁ_Ï_ÌÌ_È_ËÂÌÚ_17-4" x1="540.28" y1="77.92" x2="540.28" y2="48.63" gradientTransform="matrix(-1, 0, 0, 1, 645.96, 0)" xlink:href="#_ÂÁ_Ï_ÌÌ_È_ËÂÌÚ_17"/><linearGradient id="_ÂÁ_Ï_ÌÌ_È_ËÂÌÚ_28-8" x1="35.38" y1="143.49" x2="45.43" y2="63.47" xlink:href="#_ÂÁ_Ï_ÌÌ_È_ËÂÌÚ_28"/><linearGradient id="_ÂÁ_Ï_ÌÌ_È_ËÂÌÚ_8" x1="40" y1="202.84" x2="40" y2="180.29" gradientTransform="matrix(0.97, 0.23, -0.23, 0.97, 81.96, -62.65)" gradientUnits="userSpaceOnUse"><stop offset="0" stop-color="#dd1a8f"/><stop offset="1" stop-color="#fe117e"/></linearGradient><linearGradient id="_ÂÁ_Ï_ÌÌ_È_ËÂÌÚ_54" x1="84.45" y1="45.87" x2="209.42" y2="45.87" gradientUnits="userSpaceOnUse"><stop offset="0"/><stop offset="1" stop-color="#6a9bff"/></linearGradient><linearGradient id="_ÂÁ_Ï_ÌÌ_È_ËÂÌÚ_54-2" x1="102.12" y1="128.13" x2="190.93" y2="128.13" xlink:href="#_ÂÁ_Ï_ÌÌ_È_ËÂÌÚ_54"/><linearGradient id="_ÂÁ_Ï_ÌÌ_È_ËÂÌÚ_153-5" x1="231.04" y1="86.23" x2="231.04" y2="83.41" xlink:href="#_ÂÁ_Ï_ÌÌ_È_ËÂÌÚ_153"/><linearGradient id="_ÂÁ_Ï_ÌÌ_È_ËÂÌÚ_153-6" x1="143.2" y1="322.33" x2="143.2" y2="200.3" xlink:href="#_ÂÁ_Ï_ÌÌ_È_ËÂÌÚ_153"/><linearGradient id="_ÂÁ_Ï_ÌÌ_È_ËÂÌÚ_28-9" x1="142.03" y1="319.84" x2="142.03" y2="223.74" xlink:href="#_ÂÁ_Ï_ÌÌ_È_ËÂÌÚ_28"/><radialGradient id="_ÂÁ_Ï_ÌÌ_È_ËÂÌÚ_91" cx="143.96" cy="307.42" r="73.34" xlink:href="#_ÂÁ_Ï_ÌÌ_È_ËÂÌÚ_17"/><linearGradient id="_ÂÁ_Ï_ÌÌ_È_ËÂÌÚ_416-4" x1="141.09" y1="199.01" x2="141.09" y2="169.26" xlink:href="#_ÂÁ_Ï_ÌÌ_È_ËÂÌÚ_416"/><linearGradient id="_ÂÁ_Ï_ÌÌ_È_ËÂÌÚ_143" x1="144.36" y1="316.97" x2="144.36" y2="300.32" gradientUnits="userSpaceOnUse"><stop offset="0" stop-color="#d4e2ff"/><stop offset="1"/></linearGradient><linearGradient id="_ÂÁ_Ï_ÌÌ_È_ËÂÌÚ_153-7" x1="221.22" y1="216.08" x2="221.22" y2="128.88" xlink:href="#_ÂÁ_Ï_ÌÌ_È_ËÂÌÚ_153"/><linearGradient id="_ÂÁ_Ï_ÌÌ_È_ËÂÌÚ_46-9" x1="261.4" y1="153.52" x2="270.27" y2="82.89" xlink:href="#_ÂÁ_Ï_ÌÌ_È_ËÂÌÚ_46"/><linearGradient id="_ÂÁ_Ï_ÌÌ_È_ËÂÌÚ_28-10" x1="260.28" y1="130.26" x2="260.28" y2="83.41" xlink:href="#_ÂÁ_Ï_ÌÌ_È_ËÂÌÚ_28"/><linearGradient id="_ÂÁ_Ï_ÌÌ_È_ËÂÌÚ_416-5" x1="258.79" y1="121.72" x2="258.79" y2="94.58" xlink:href="#_ÂÁ_Ï_ÌÌ_È_ËÂÌÚ_416"/><linearGradient id="_ÂÁ_Ï_ÌÌ_È_ËÂÌÚ_46-10" x1="248.31" y1="127.54" x2="253.25" y2="88.18" xlink:href="#_ÂÁ_Ï_ÌÌ_È_ËÂÌÚ_46"/><linearGradient id="_ÂÁ_Ï_ÌÌ_È_ËÂÌÚ_28-11" x1="268.85" y1="134.71" x2="268.85" y2="108.73" xlink:href="#_ÂÁ_Ï_ÌÌ_È_ËÂÌÚ_28"/><linearGradient id="_ÂÁ_Ï_ÌÌ_È_ËÂÌÚ_65" x1="75.8" y1="133.04" x2="75.8" y2="123.47" gradientUnits="userSpaceOnUse"><stop offset="0" stop-color="#d93de3"/><stop offset="1" stop-color="#ff6dba"/></linearGradient><linearGradient id="_ÂÁ_Ï_ÌÌ_È_ËÂÌÚ_126" x1="59.11" y1="130.53" x2="59.11" y2="85.23" gradientTransform="translate(22.34 -20.25) rotate(3.92)" gradientUnits="userSpaceOnUse"><stop offset="0"/><stop offset="1" stop-color="#00e3ff"/></linearGradient><linearGradient id="_ÂÁ_Ï_ÌÌ_È_ËÂÌÚ_134" x1="103.14" y1="250.03" x2="186.71" y2="250.03" gradientUnits="userSpaceOnUse"><stop offset="0"/><stop offset="1" stop-color="#d4e2ff"/></linearGradient><linearGradient id="_ÂÁ_Ï_ÌÌ_È_ËÂÌÚ_134-2" x1="218.74" y1="41.82" x2="236.37" y2="41.82" xlink:href="#_ÂÁ_Ï_ÌÌ_È_ËÂÌÚ_134"/><linearGradient id="_ÂÁ_Ï_ÌÌ_È_ËÂÌÚ_143-2" x1="49.61" y1="39.09" x2="69.04" y2="39.09" xlink:href="#_ÂÁ_Ï_ÌÌ_È_ËÂÌÚ_143"/><linearGradient id="_ÂÁ_Ï_ÌÌ_È_ËÂÌÚ_46-11" x1="30.18" y1="93.24" x2="30.18" y2="70.85" gradientTransform="matrix(1, 0.02, -0.02, 1, 5.15, -4.32)" xlink:href="#_ÂÁ_Ï_ÌÌ_È_ËÂÌÚ_46"/></defs><title>hi</title><g class="cls-1"><g id="Camada_1" data-name="Camada 1"><path class="cls-2" d="M134.75,327.83c-2.36,13.81-12.86,45.7-22.27,42.34-2-.72-4.16-3.29-6.28-7.08-6.43-11.51-12.76-34.16-15.89-49.47-1.7-8.35-2.47-14.53-1.78-15.53,4.19-6.21,44.05,20.73,46.43,23.73C135.4,322.39,135.31,324.62,134.75,327.83Z" transform="translate(-6.45 -11.04)"/><path class="cls-3" d="M197.87,309.19c-.14,1.28-.32,2.61-.5,4-2.82,21-8.65,51.76-14.91,63-1.49,2.69-3,4.25-4.52,4.28a3.72,3.72,0,0,1-1.22-.18A10.38,10.38,0,0,1,172.3,377v0c-9.5-10.66-20.22-43-20.6-52.68a4.44,4.44,0,0,1,.36-2.46c5.41-7.35,44.62-32.42,46.8-29.43C199.43,293.19,199,299.86,197.87,309.19Z" transform="translate(-6.45 -11.04)"/><path class="cls-4" d="M88.52,298.1c-4.41,5.76,31.55,31.86,46.71,25C135.23,323.14,94.39,290.43,88.52,298.1Z" transform="translate(-6.45 -11.04)"/><path class="cls-5" d="M151.7,324.27c-1.19,2.94,40.33-3.8,47.15-31.88C198.85,292.39,163,296.59,151.7,324.27Z" transform="translate(-6.45 -11.04)"/><path class="cls-6" d="M104.25,322.33c-2,2.49.48,34.79,8.23,47.84-2-.72-4.16-3.29-6.28-7.08-1.26-5.66-3.13-14-4.9-22.43-2.26-10.79-8-21.86-11-27-1.7-8.35-2.47-14.53-1.78-15.53,4.19-6.21,44.05,20.73,46.43,23.73.44.57.35,2.8-.21,6C134.75,327.83,106.27,319.85,104.25,322.33Z" transform="translate(-6.45 -11.04)"/><path class="cls-7" d="M174.48,334c-1.7.53-2.09,14,.74,14.8S178.4,332.84,174.48,334Z" transform="translate(-6.45 -11.04)"/><path class="cls-8" d="M197.87,309.19s-22.7,6.72-28,17.5S166.64,363,172.3,377c-9.5-10.66-20.22-43-20.6-52.68a4.44,4.44,0,0,1,.36-2.46c5.41-7.35,44.62-32.42,46.8-29.43C199.43,293.19,199,299.86,197.87,309.19Z" transform="translate(-6.45 -11.04)"/><path class="cls-9" d="M99.74,203.34c0,12-1.72,29.31-7.16,43.32-9,23.18-22.53,52.37-22.94,53.28l0,0c-8.26,5-18.15,4.77-24.45,3.85a41.65,41.65,0,0,1-6.31-1.36s2.8-26.56,17.4-56.65A232,232,0,0,1,81,206.25a.53.53,0,0,0,.12-.14c.08-.13.2-.27.29-.4l.17-.21a.66.66,0,0,0,.14-.2c.09-.09.15-.18.22-.26a.09.09,0,0,0,0,0l0,0c8.19-10.38,14.83-16.68,16.22-15.91C99,189.51,99.77,195.19,99.74,203.34Z" transform="translate(-6.45 -11.04)"/><path class="cls-10" d="M39,301.41s10.65-17.55,21.62-15.27,9,13.82,9,13.82S55.58,310.12,39,301.41Z" transform="translate(-6.45 -11.04)"/><path class="cls-11" d="M99.74,203.34c0,12-1.72,29.31-7.16,43.32-9,23.18-22.53,52.37-22.94,53.28l0,0-24.45,3.85a41.65,41.65,0,0,1-6.31-1.36s2.8-26.56,17.4-56.65A232,232,0,0,1,81,206.25c-4.6,6.09-23.89,32.57-29.07,55.06-5.9,25.6,17.91,15.74,27.65,0s19.89-58,19.89-58Z" transform="translate(-6.45 -11.04)"/><path class="cls-7" d="M73.13,244.25c-1.93-.73,8.08-23.41,11.19-23.61S74.79,244.87,73.13,244.25Z" transform="translate(-6.45 -11.04)"/><path class="cls-7" d="M72.12,246.67c-1.53-.81-3,3.43-1.57,4.05S73.85,247.58,72.12,246.67Z" transform="translate(-6.45 -11.04)"/><path class="cls-12" d="M57.06,291.43c-5.68-.93-13.94,4.39-16.51,9.16s-3.92,32.27,2.57,55c0,0,9.17,2.48,16,0s11.65-22.53,12-37.61S66.42,293,57.06,291.43Z" transform="translate(-6.45 -11.04)"/><path class="cls-13" d="M56.21,356.34S47.84,308,66.87,298.07c0,0,5.65,9.59,3.55,28.3S65.1,354.62,56.21,356.34Z" transform="translate(-6.45 -11.04)"/><path class="cls-14" d="M54.84,329.49s4.89,7.14,8.23,8.31a8.39,8.39,0,0,0,5.95-.06l-12.34-22S54.44,324.5,54.84,329.49Z" transform="translate(-6.45 -11.04)"/><path class="cls-15" d="M56.68,315.77s2.71-13.4,10.8-16.68c0,0,7.53,7.42,5.62,36.25,0,0-4.2,5.54-10.12,0C63,335.34,58,325.51,56.68,315.77Z" transform="translate(-6.45 -11.04)"/><path class="cls-7" d="M61.31,311.05c-2.75,0,1.43,12.17,2.86,11.88S63.6,311.05,61.31,311.05Z" transform="translate(-6.45 -11.04)"/><path class="cls-16" d="M92.57,33S80.13,22.22,64.91,20.36c0,0-4.66,2.28-10,19s4.56,49.92,4.56,49.92Z" transform="translate(-6.45 -11.04)"/><path class="cls-17" d="M59,28.72s2.44-5.67,5.9-8.36c0,0,12.52,11.56,12,39.18l-3.61,3.73Z" transform="translate(-6.45 -11.04)"/><path class="cls-18" d="M195.52,33S208,22.22,223.19,20.36c0,0,4.66,2.28,10,19s-4.55,49.92-4.55,49.92Z" transform="translate(-6.45 -11.04)"/><path class="cls-19" d="M223.19,20.36a53.77,53.77,0,0,0-12.32,34.48l4.76,3,13.88-28.73S224.9,20.11,223.19,20.36Z" transform="translate(-6.45 -11.04)"/><path class="cls-20" d="M215.18,56.4s-3.28-18.18,8.68-31.54c0,0,13.52,6.37,19.11,30s-9,37.79-9,37.79Z" transform="translate(-6.45 -11.04)"/><path class="cls-21" d="M72.92,56.4s3.27-18.18-8.69-31.54c0,0-13.51,6.37-19.1,30s9,37.79,9,37.79Z" transform="translate(-6.45 -11.04)"/><path class="cls-22" d="M231.78,156.85c-27.76,38.93-158.22,36-175.21,4.56-11.08-20.56-9.87-51.47.8-79.92C71.38,44.16,101.69,11,141.9,11c47.32,0,83.67,47.14,94.62,90.2C242.06,123,241.11,143.77,231.78,156.85Z" transform="translate(-6.45 -11.04)"/><path class="cls-23" d="M66.31,120.75c6.21,26.51,120.89,29.4,149.05,5.37S203,16.74,140.84,20.47C84,23.88,56.13,77.33,66.31,120.75Z" transform="translate(-6.45 -11.04)"/><path class="cls-24" d="M65.71,117.53c6.21,26.51,120.89,29.4,149.06,5.37S202.37,13.52,140.24,17.25C83.41,20.66,55.53,74.11,65.71,117.53Z" transform="translate(-6.45 -11.04)"/><path class="cls-25" d="M231.78,156.85c-27.76,38.93-158.22,36-175.21,4.56-11.08-20.56-9.87-51.47.8-79.92h0c-.46,1.67-11.4,41.55-.23,59.09C68.57,158.51,113.73,156,162.2,154s64.5-9.12,72.63-22.79c6.41-10.76,0-34.5-3.06-44.11l4.75,14.19C242.06,123,241.11,143.77,231.78,156.85Z" transform="translate(-6.45 -11.04)"/><path class="cls-26" d="M142,185.51c-27.12,0-46.66-3.08-57.6-7.46h0c-7.18-2.87-10.66-6.29-10.15-9.82.31-2.15,5.64-4,14-5.57,24.62-4.46,75.6-5.81,103.06-1.64,2.37.36,4.56.75,6.55,1.19l1.23.3.23.05c4.73,1.16,8.1,2.59,9.59,4.33a3.54,3.54,0,0,1,.77,1.34C212.29,177,166.54,185.53,142,185.51Z" transform="translate(-6.45 -11.04)"/><path class="cls-27" d="M209.42,166.07a3.43,3.43,0,0,1-.46.82c-2.66,3.75-13.43,8.59-13.43,8.59s-41.4-16.94-75-9.41-36.12,12-36.12,12h0c-7.18-2.87-10.66-6.29-10.15-9.82.31-2.15,5.64-4,14-5.57,24.62-4.46,75.6-5.81,103.06-1.64,2.87.51,5.48,1,7.78,1.49l.23.05C205.88,164,209.73,165.21,209.42,166.07Z" transform="translate(-6.45 -11.04)"/><path class="cls-28" d="M197.91,162.21c-6.41,6.14-37.16,11.43-54.69,11.42-31.41,0-50.5-5-54.92-11C115,157.82,172.89,156.64,197.91,162.21Z" transform="translate(-6.45 -11.04)"/><path class="cls-29" d="M195.94,285.06c-3.79,22.36-23.81,37.27-52.52,37.27-25,0-46.15-9.32-51.75-29.83s-3.42-58.4,4-82a76.52,76.52,0,0,1,4-10.15l0,0a70.66,70.66,0,0,1,4.72-8.31l0,0c9.12-13.73,22.46-22.7,37.55-22.7,15.71,0,27.72,6.46,35.91,16a52.8,52.8,0,0,1,8.92,15A149,149,0,0,1,193,220c0,.05,0,.12,0,.2C198.22,241.69,199.32,265.09,195.94,285.06Z" transform="translate(-6.45 -11.04)"/><path class="cls-30" d="M176.33,183.5s2.45,26.57,18,42.73C194.38,226.23,190.06,201.46,176.33,183.5Z" transform="translate(-6.45 -11.04)"/><path class="cls-31" d="M264.51,151.05c-24.45,48.47-67.57,65-67.57,65-11.86-7.68-22.18-32.73-18.1-37.62h0a2.08,2.08,0,0,1,.74-.58c52.6-25.17,68.34-51.27,68.34-51.27,7.1.51,11.17,4.66,13.48,9.41C264.8,142.92,264.51,151.05,264.51,151.05Z" transform="translate(-6.45 -11.04)"/><path class="cls-32" d="M56.57,161.41S62.08,155,72.89,149.8s20.74-9.23,22.28-13.39-29.65-1.7-29.65-1.7L50,141.44S52.43,154,56.57,161.41Z" transform="translate(-6.45 -11.04)"/><path class="cls-33" d="M247.94,126.61c-4.38,1.17-3.94,30.24,1.66,33.14s14.91-8.7,14.91-8.7S263.47,122.47,247.94,126.61Z" transform="translate(-6.45 -11.04)"/><path class="cls-34" d="M164.89,74.62c4.14,7.3,31.59.81,33.13-3.52,2.08-5.8-5.59-24-20.09-22.37S162.88,71.08,164.89,74.62Z" transform="translate(-6.45 -11.04)"/><path class="cls-35" d="M122,74.62c-4.15,7.3-31.59.81-33.14-3.52-2.07-5.8,5.59-24,20.09-22.37S124,71.08,122,74.62Z" transform="translate(-6.45 -11.04)"/><path class="cls-36" d="M114.35,88.08s7.83,8.08,30,8.08,33.57-9.32,33.57-9.32-9.77,13.26-33.57,13.26S114.35,88.08,114.35,88.08Z" transform="translate(-6.45 -11.04)"/><path class="cls-37" d="M43.85,63.27s8,5.18,2.77,17.17c0,0-37.59,20.47-35.41,42.78C13,141.83,65,132.82,65,132.82L66.82,139s-44.12,8.64-59.34-1.74c0,0-5.18-12.29,7.66-34.45A258.2,258.2,0,0,1,43.85,63.27Z" transform="translate(-6.45 -11.04)"/><path class="cls-38" d="M58.38,131.1c-4.73,5.35,5.31,11.21,13.57,12.1,9.26,1,25.72-2.65,24.72-12S69.47,118.55,58.38,131.1Z" transform="translate(-6.45 -11.04)"/><path class="cls-39" d="M84.53,50.49c-1.43,8.59,17.67,8.22,43.7,7.36,31.27-1,62.7,25.89,81,6.56,3-3.18-26.93-45-63.07-44.06S85.77,43,84.53,50.49Z" transform="translate(-6.45 -11.04)"/><path class="cls-40" d="M102.26,125.29c-1.66,6.22,11.37,12.44,43.38,10.88,38.71-1.9,46.93-10,45-12.25-1.14-1.35-12.74,6-44.53-1C125.15,118.3,104,118.74,102.26,125.29Z" transform="translate(-6.45 -11.04)"/><path class="cls-41" d="M231.5,86.23l-.93-2.82C230.75,84,231.09,84.92,231.5,86.23Z" transform="translate(-6.45 -11.04)"/><path class="cls-42" d="M195.94,285.06c-3.79,22.36-23.81,37.27-52.52,37.27-25,0-46.15-9.32-51.75-29.83s-3.42-58.4,4-82a76.52,76.52,0,0,1,4-10.15l0,0s-15.12,50.13-3,82.05,68.39,31.25,87.44,10c18.13-20.19,9.76-67.61,8.9-72.15C198.22,241.69,199.32,265.09,195.94,285.06Z" transform="translate(-6.45 -11.04)"/><path class="cls-43" d="M92.75,271.79c4.27-30,28.35-50.36,55.09-47.84,28.83,2.72,44.32,30.24,43.91,53.85s-17.67,42-48.6,42S88.75,299.86,92.75,271.79Z" transform="translate(-6.45 -11.04)"/><path class="cls-44" d="M93,274.27c4.27-30,28.35-50.36,55.09-47.83,28.83,2.72,44.32,30.24,43.91,53.85s-17.67,42-48.6,42S89,302.34,93,274.27Z" transform="translate(-6.45 -11.04)"/><path class="cls-45" d="M177.94,185.28c-6.12,9.6-39.78,15.18-59.24,13.4-16.94-1.54-14.37-6.12-14.24-6.69l0,0c9.12-13.73,22.46-22.7,37.55-22.7C157.74,169.26,169.75,175.72,177.94,185.28Z" transform="translate(-6.45 -11.04)"/><path class="cls-7" d="M166,201.91c-1.56.52-1.64,13.14,0,15.17s4.27,1.41,5.15-1.57S168.34,201.13,166,201.91Z" transform="translate(-6.45 -11.04)"/><path class="cls-7" d="M168.86,220.44c-1.3.31-1.45,3.44-.85,4.53s2.87.86,3.24-.46S170.18,220.13,168.86,220.44Z" transform="translate(-6.45 -11.04)"/><path class="cls-46" d="M110,304.84s6.91,12,32.64,12.13,36.19-15.22,36.19-15.22-11.87,7.73-28.85,3.09S116.17,297.58,110,304.84Z" transform="translate(-6.45 -11.04)"/><path class="cls-7" d="M164,16.53c-2.75.64,20.31,12.84,21.25,11.39S171.65,14.76,164,16.53Z" transform="translate(-6.45 -11.04)"/><path class="cls-7" d="M208.23,25.65c-2.3,1.24-2.12,3.72,2.64,3.1s7.35-4.35,6.83-5.08S210.81,24.25,208.23,25.65Z" transform="translate(-6.45 -11.04)"/><path class="cls-47" d="M264.51,151.05c-24.45,48.47-67.57,65-67.57,65-11.86-7.68-22.18-32.73-18.1-37.62h0a5.9,5.9,0,0,1,.74-.58s7.7,28.26,30.24,20.42c26.75-9.3,37.69-55.78,37.69-55.78V128.88L261.41,136C264.8,142.92,264.51,151.05,264.51,151.05Z" transform="translate(-6.45 -11.04)"/><path class="cls-48" d="M246.38,134.81s-.21,15.33,8.49,17.81,19.57-13.76,23.61-20.5,10.15-37.07,4.35-44.32-17-5.39-24.44,4.76C258.39,92.56,246.79,121.76,246.38,134.81Z" transform="translate(-6.45 -11.04)"/><path class="cls-49" d="M246.85,130.26s10.09-7.67,12.37-19.47,14.5-27.37,14.5-27.37-6.43-.59-15.33,9.14S246.85,130.26,246.85,130.26Z" transform="translate(-6.45 -11.04)"/><path class="cls-50" d="M256.8,94.58l7.71,2.91a50,50,0,0,0-4.81,11.24c-1.39,5.5-6.62,13-6.62,13Z" transform="translate(-6.45 -11.04)"/><path class="cls-51" d="M246.85,127.36s-2.65-5.8-3-17,2.29-20,3.53-21.54S253,87.49,255,90s3.57,14.78,3.57,14.78S255.81,124.66,246.85,127.36Z" transform="translate(-6.45 -11.04)"/><path class="cls-52" d="M259.22,110.79s5.18,17.08,17.66,23.92l1.6-2.59s-12.7-6.69-18.78-23.39Z" transform="translate(-6.45 -11.04)"/><path class="cls-7" d="M250.11,97.2c-1.25-.15-.82,10.86.73,10.4S251.87,97.4,250.11,97.2Z" transform="translate(-6.45 -11.04)"/><path class="cls-53" d="M59,132.08c-.28,1.53,32.79,1.89,33.56-4S61.18,120.28,59,132.08Z" transform="translate(-6.45 -11.04)"/><path class="cls-54" d="M67.14,108.79a83.89,83.89,0,0,1,.24-21.13C69,75.54,72.22,67.72,74.16,68.82s1.64,13,2.78,24.65c.89,9.09,2.64,17.63,2.64,17.63S71.21,119.11,67.14,108.79Z" transform="translate(-6.45 -11.04)"/><path class="cls-55" d="M103.24,255.23c5.08,8.1,26,3.79,49.56,6.08s27.58,10,32.56,8.42-2.89-37-38.1-39.44S102,253.21,103.24,255.23Z" transform="translate(-6.45 -11.04)"/><path class="cls-56" d="M234.17,35.55s-4.38-5.43-10.36-4S217.45,51.83,221,52.29s5.09-10.4,7.82-12.11,7.53-1,7.53-1Z" transform="translate(-6.45 -11.04)"/><path class="cls-57" d="M49.61,42.09s2.3-2.62,7.48-1.77S65.25,51.79,67.9,50.73s.71-18.28-6.29-23.35C61.61,27.38,52.58,35.09,49.61,42.09Z" transform="translate(-6.45 -11.04)"/><path class="cls-58" d="M42.57,67.15s-18.31,20.58-17.19,22S43.67,69.28,42.57,67.15Z" transform="translate(-6.45 -11.04)"/></g></g></svg>