<svg id="Camada_1" data-name="Camada 1" xmlns="http://www.w3.org/2000/svg" viewBox="0 0 311.75 360.14"><defs><style>.cls-1{fill:#e5f6ff;}.cls-2{fill:#e8186c;}</style></defs><title>lose-bg</title><path class="cls-1" d="M84.89,346.13c17,28.17,159.83,20.56,213.25-5.61S347.34,128.7,321.9,95.19,146.23,6.1,80.08,42.47,62.21,308.64,84.89,346.13Z" transform="translate(-28.3 -3.86)"/><path class="cls-1" d="M264.73,31c.14-13.75,39.53-31,57.36-26.32s20.58,66.08-6.56,68.12S264.55,48.1,264.73,31Z" transform="translate(-28.3 -3.86)"/><path class="cls-1" d="M28.69,331.3C25.33,316.74,44.84,298,55.14,300.64S77.08,351.81,61.42,353,30.91,340.94,28.69,331.3Z" transform="translate(-28.3 -3.86)"/><path class="cls-2" d="M232.71,314.68a77.82,77.82,0,1,1,77.81-77.81A77.9,77.9,0,0,1,232.71,314.68Zm0-146.52a68.71,68.71,0,1,0,68.71,68.71A68.79,68.79,0,0,0,232.71,168.16Z" transform="translate(-28.3 -3.86)"/><path class="cls-2" d="M197.93,276.2a4.55,4.55,0,0,1-3.22-7.77l69.57-69.56a4.55,4.55,0,1,1,6.43,6.43l-69.56,69.57A4.54,4.54,0,0,1,197.93,276.2Z" transform="translate(-28.3 -3.86)"/><path class="cls-2" d="M267.49,276.2a4.52,4.52,0,0,1-3.21-1.33L194.71,205.3a4.55,4.55,0,0,1,6.44-6.43l69.56,69.56a4.55,4.55,0,0,1-3.22,7.77Z" transform="translate(-28.3 -3.86)"/></svg>