<svg xmlns="http://www.w3.org/2000/svg" xmlns:xlink="http://www.w3.org/1999/xlink" viewBox="0 0 272.27 306.12"><defs><style>.cls-1{isolation:isolate;}.cls-2{fill:url(#_ÂÁ_Ï_ÌÌ_È_ËÂÌÚ_9);}.cls-3{fill:url(#_ÂÁ_Ï_ÌÌ_È_ËÂÌÚ_28);}.cls-4,.cls-46,.cls-50,.cls-51,.cls-52{opacity:0.3;}.cls-11,.cls-17,.cls-23,.cls-36,.cls-4,.cls-46,.cls-50,.cls-51,.cls-52{mix-blend-mode:multiply;}.cls-4{fill:url(#_ÂÁ_Ï_ÌÌ_È_ËÂÌÚ_153);}.cls-5{fill:url(#_ÂÁ_Ï_ÌÌ_È_ËÂÌÚ_9-2);}.cls-6{fill:url(#_ÂÁ_Ï_ÌÌ_È_ËÂÌÚ_46);}.cls-7{fill:url(#_ÂÁ_Ï_ÌÌ_È_ËÂÌÚ_28-2);}.cls-8{fill:#6340a2;}.cls-9{fill:url(#_ÂÁ_Ï_ÌÌ_È_ËÂÌÚ_91);}.cls-10{fill:url(#_ÂÁ_Ï_ÌÌ_È_ËÂÌÚ_46-2);}.cls-11,.cls-17,.cls-23,.cls-33,.cls-34,.cls-36{opacity:0.5;}.cls-11{fill:url(#_ÂÁ_Ï_ÌÌ_È_ËÂÌÚ_416);}.cls-12{fill:url(#_ÂÁ_Ï_ÌÌ_È_ËÂÌÚ_46-3);}.cls-13{fill:url(#_ÂÁ_Ï_ÌÌ_È_ËÂÌÚ_9-3);}.cls-14{fill:url(#_ÂÁ_Ï_ÌÌ_È_ËÂÌÚ_46-4);}.cls-15{fill:url(#_ÂÁ_Ï_ÌÌ_È_ËÂÌÚ_28-3);}.cls-16{fill:url(#_ÂÁ_Ï_ÌÌ_È_ËÂÌÚ_8);}.cls-17{fill:url(#_ÂÁ_Ï_ÌÌ_È_ËÂÌÚ_416-2);}.cls-18{fill:url(#_ÂÁ_Ï_ÌÌ_È_ËÂÌÚ_28-4);}.cls-19{fill:url(#_ÂÁ_Ï_ÌÌ_È_ËÂÌÚ_28-5);}.cls-20{fill:url(#_ÂÁ_Ï_ÌÌ_È_ËÂÌÚ_46-5);}.cls-21{fill:url(#_ÂÁ_Ï_ÌÌ_È_ËÂÌÚ_65);}.cls-22{fill:url(#_ÂÁ_Ï_ÌÌ_È_ËÂÌÚ_14);}.cls-23{fill:url(#_ÂÁ_Ï_ÌÌ_È_ËÂÌÚ_416-3);}.cls-24{fill:url(#_ÂÁ_Ï_ÌÌ_È_ËÂÌÚ_264);}.cls-25{fill:url(#_ÂÁ_Ï_ÌÌ_È_ËÂÌÚ_28-6);}.cls-26{fill:url(#_ÂÁ_Ï_ÌÌ_È_ËÂÌÚ_17);}.cls-27{fill:#fff;}.cls-28{fill:url(#_ÂÁ_Ï_ÌÌ_È_ËÂÌÚ_264-2);}.cls-29{fill:url(#_ÂÁ_Ï_ÌÌ_È_ËÂÌÚ_28-7);}.cls-30{fill:url(#_ÂÁ_Ï_ÌÌ_È_ËÂÌÚ_17-2);}.cls-31{fill:url(#_ÂÁ_Ï_ÌÌ_È_ËÂÌÚ_46-6);}.cls-32{fill:url(#_ÂÁ_Ï_ÌÌ_È_ËÂÌÚ_132);}.cls-33,.cls-34,.cls-35,.cls-40,.cls-41,.cls-49{mix-blend-mode:screen;}.cls-33{fill:url(#_ÂÁ_Ï_ÌÌ_È_ËÂÌÚ_54);}.cls-34{fill:url(#_ÂÁ_Ï_ÌÌ_È_ËÂÌÚ_54-2);}.cls-35{opacity:0.2;fill:url(#_ÂÁ_Ï_ÌÌ_È_ËÂÌÚ_126);}.cls-36{fill:url(#_ÂÁ_Ï_ÌÌ_È_ËÂÌÚ_416-4);}.cls-37{fill:url(#_ÂÁ_Ï_ÌÌ_È_ËÂÌÚ_28-8);}.cls-38{fill:url(#_ÂÁ_Ï_ÌÌ_È_ËÂÌÚ_8-2);}.cls-39{fill:url(#_ÂÁ_Ï_ÌÌ_È_ËÂÌÚ_65-2);}.cls-40,.cls-41,.cls-49{opacity:0.72;}.cls-40{fill:url(#_ÂÁ_Ï_ÌÌ_È_ËÂÌÚ_134);}.cls-41{fill:url(#_ÂÁ_Ï_ÌÌ_È_ËÂÌÚ_143);}.cls-42{fill:url(#_ÂÁ_Ï_ÌÌ_È_ËÂÌÚ_46-7);}.cls-43{fill:url(#_ÂÁ_Ï_ÌÌ_È_ËÂÌÚ_91-2);}.cls-44{fill:url(#_ÂÁ_Ï_ÌÌ_È_ËÂÌÚ_91-3);}.cls-45{fill:#2f95cd;}.cls-46{fill:url(#_ÂÁ_Ï_ÌÌ_È_ËÂÌÚ_153-2);}.cls-47{fill:url(#_ÂÁ_Ï_ÌÌ_È_ËÂÌÚ_46-8);}.cls-48{fill:url(#_ÂÁ_Ï_ÌÌ_È_ËÂÌÚ_28-9);}.cls-49{fill:url(#_ÂÁ_Ï_ÌÌ_È_ËÂÌÚ_143-2);}.cls-50{fill:url(#_ÂÁ_Ï_ÌÌ_È_ËÂÌÚ_153-3);}.cls-51{fill:url(#_ÂÁ_Ï_ÌÌ_È_ËÂÌÚ_153-4);}.cls-52{fill:url(#_ÂÁ_Ï_ÌÌ_È_ËÂÌÚ_416-5);}.cls-53{fill:url(#_ÂÁ_Ï_ÌÌ_È_ËÂÌÚ_14-2);}</style><linearGradient id="_ÂÁ_Ï_ÌÌ_È_ËÂÌÚ_9" x1="107.7" y1="340.1" x2="114.15" y2="288.71" gradientUnits="userSpaceOnUse"><stop offset="0" stop-color="#dad3f9"/><stop offset="1" stop-color="#be9dea"/></linearGradient><linearGradient id="_ÂÁ_Ï_ÌÌ_È_ËÂÌÚ_28" x1="137.66" y1="333.23" x2="137.66" y2="290.05" gradientUnits="userSpaceOnUse"><stop offset="0" stop-color="#be9dea"/><stop offset="1" stop-color="#9e8cef"/></linearGradient><linearGradient id="_ÂÁ_Ï_ÌÌ_È_ËÂÌÚ_153" x1="109.12" y1="336.88" x2="109.12" y2="291.85" gradientUnits="userSpaceOnUse"><stop offset="0" stop-color="#9d68c2"/><stop offset="1" stop-color="#ccedff"/></linearGradient><linearGradient id="_ÂÁ_Ï_ÌÌ_È_ËÂÌÚ_9-2" x1="109.11" y1="277.13" x2="119.61" y2="193.49" xlink:href="#_ÂÁ_Ï_ÌÌ_È_ËÂÌÚ_9"/><linearGradient id="_ÂÁ_Ï_ÌÌ_È_ËÂÌÚ_46" x1="167.07" y1="334.7" x2="184.79" y2="193.57" gradientUnits="userSpaceOnUse"><stop offset="0" stop-color="#cbc1f7"/><stop offset="1" stop-color="#e8dcf7"/></linearGradient><linearGradient id="_ÂÁ_Ï_ÌÌ_È_ËÂÌÚ_28-2" x1="205.68" y1="253.31" x2="211.61" y2="206.1" xlink:href="#_ÂÁ_Ï_ÌÌ_È_ËÂÌÚ_28"/><radialGradient id="_ÂÁ_Ï_ÌÌ_È_ËÂÌÚ_91" cx="170.52" cy="315.97" r="60.85" gradientTransform="translate(0 -5.01) scale(1 1.03)" gradientUnits="userSpaceOnUse"><stop offset="0" stop-color="#45ffcd"/><stop offset="1" stop-color="#22e0ff"/></radialGradient><linearGradient id="_ÂÁ_Ï_ÌÌ_È_ËÂÌÚ_46-2" x1="228.65" y1="339.06" x2="235.96" y2="280.84" xlink:href="#_ÂÁ_Ï_ÌÌ_È_ËÂÌÚ_46"/><linearGradient id="_ÂÁ_Ï_ÌÌ_È_ËÂÌÚ_416" x1="221.79" y1="323.48" x2="221.79" y2="279.12" gradientUnits="userSpaceOnUse"><stop offset="0" stop-color="#8da4e5"/><stop offset="1" stop-color="#755cbb"/></linearGradient><linearGradient id="_ÂÁ_Ï_ÌÌ_È_ËÂÌÚ_46-3" x1="224.17" y1="277.2" x2="233.44" y2="203.4" xlink:href="#_ÂÁ_Ï_ÌÌ_È_ËÂÌÚ_46"/><linearGradient id="_ÂÁ_Ï_ÌÌ_È_ËÂÌÚ_9-3" x1="184.3" y1="259.62" x2="186.55" y2="241.65" xlink:href="#_ÂÁ_Ï_ÌÌ_È_ËÂÌÚ_9"/><linearGradient id="_ÂÁ_Ï_ÌÌ_È_ËÂÌÚ_46-4" x1="92.33" y1="258.58" x2="95.03" y2="237.12" xlink:href="#_ÂÁ_Ï_ÌÌ_È_ËÂÌÚ_46"/><linearGradient id="_ÂÁ_Ï_ÌÌ_È_ËÂÌÚ_28-3" x1="99.71" y1="247.16" x2="99.71" y2="237.19" xlink:href="#_ÂÁ_Ï_ÌÌ_È_ËÂÌÚ_28"/><linearGradient id="_ÂÁ_Ï_ÌÌ_È_ËÂÌÚ_8" x1="135.19" y1="308.29" x2="151.83" y2="237.64" gradientUnits="userSpaceOnUse"><stop offset="0" stop-color="#dd1a8f"/><stop offset="1" stop-color="#fe117e"/></linearGradient><linearGradient id="_ÂÁ_Ï_ÌÌ_È_ËÂÌÚ_416-2" x1="139.9" y1="304.76" x2="139.9" y2="263.72" xlink:href="#_ÂÁ_Ï_ÌÌ_È_ËÂÌÚ_416"/><linearGradient id="_ÂÁ_Ï_ÌÌ_È_ËÂÌÚ_28-4" x1="94.7" y1="290.08" x2="94.7" y2="250.4" xlink:href="#_ÂÁ_Ï_ÌÌ_È_ËÂÌÚ_28"/><linearGradient id="_ÂÁ_Ï_ÌÌ_È_ËÂÌÚ_28-5" x1="207.86" y1="275.59" x2="207.86" y2="253.13" xlink:href="#_ÂÁ_Ï_ÌÌ_È_ËÂÌÚ_28"/><linearGradient id="_ÂÁ_Ï_ÌÌ_È_ËÂÌÚ_46-5" x1="86.16" y1="290.68" x2="91.06" y2="251.64" xlink:href="#_ÂÁ_Ï_ÌÌ_È_ËÂÌÚ_46"/><linearGradient id="_ÂÁ_Ï_ÌÌ_È_ËÂÌÚ_65" x1="138.52" y1="252.28" x2="140.44" y2="237.05" gradientUnits="userSpaceOnUse"><stop offset="0" stop-color="#d93de3"/><stop offset="1" stop-color="#ff6dba"/></linearGradient><linearGradient id="_ÂÁ_Ï_ÌÌ_È_ËÂÌÚ_14" x1="66.57" y1="328.27" x2="74.21" y2="220.56" gradientUnits="userSpaceOnUse"><stop offset="0" stop-color="#a242ea"/><stop offset="1" stop-color="#fe117e"/></linearGradient><linearGradient id="_ÂÁ_Ï_ÌÌ_È_ËÂÌÚ_416-3" x1="165.82" y1="223.48" x2="165.82" y2="201.85" xlink:href="#_ÂÁ_Ï_ÌÌ_È_ËÂÌÚ_416"/><linearGradient id="_ÂÁ_Ï_ÌÌ_È_ËÂÌÚ_264" x1="246.24" y1="112.99" x2="246.24" y2="41.75" gradientUnits="userSpaceOnUse"><stop offset="0" stop-color="#b9acf4"/><stop offset="1" stop-color="#e1d1f5"/></linearGradient><linearGradient id="_ÂÁ_Ï_ÌÌ_È_ËÂÌÚ_28-6" x1="251.41" y1="80.48" x2="251.41" y2="41.75" xlink:href="#_ÂÁ_Ï_ÌÌ_È_ËÂÌÚ_28"/><linearGradient id="_ÂÁ_Ï_ÌÌ_È_ËÂÌÚ_17" x1="261.04" y1="116.4" x2="261.04" y2="46.41" gradientTransform="matrix(1, 0, 0, 1, 0, 0)" xlink:href="#_ÂÁ_Ï_ÌÌ_È_ËÂÌÚ_91"/><linearGradient id="_ÂÁ_Ï_ÌÌ_È_ËÂÌÚ_264-2" x1="246.59" y1="115.77" x2="246.59" y2="44.53" gradientTransform="matrix(-1, 0, 0, 1, 344.42, 0)" xlink:href="#_ÂÁ_Ï_ÌÌ_È_ËÂÌÚ_264"/><linearGradient id="_ÂÁ_Ï_ÌÌ_È_ËÂÌÚ_28-7" x1="251.77" y1="83.25" x2="251.77" y2="44.53" gradientTransform="matrix(-1, 0, 0, 1, 344.42, 0)" xlink:href="#_ÂÁ_Ï_ÌÌ_È_ËÂÌÚ_28"/><linearGradient id="_ÂÁ_Ï_ÌÌ_È_ËÂÌÚ_17-2" x1="261.34" y1="120.76" x2="261.34" y2="49.18" gradientTransform="matrix(-1, 0, 0, 1, 344.42, 0)" xlink:href="#_ÂÁ_Ï_ÌÌ_È_ËÂÌÚ_91"/><linearGradient id="_ÂÁ_Ï_ÌÌ_È_ËÂÌÚ_46-6" x1="165.65" y1="207.06" x2="187.38" y2="34.05" xlink:href="#_ÂÁ_Ï_ÌÌ_È_ËÂÌÚ_46"/><linearGradient id="_ÂÁ_Ï_ÌÌ_È_ËÂÌÚ_132" x1="172.65" y1="190.49" x2="172.65" y2="47.47" gradientUnits="userSpaceOnUse"><stop offset="0" stop-color="#0665bd"/><stop offset="1" stop-color="#1a1f77"/></linearGradient><linearGradient id="_ÂÁ_Ï_ÌÌ_È_ËÂÌÚ_54" x1="112.74" y1="79.46" x2="238.91" y2="79.46" gradientUnits="userSpaceOnUse"><stop offset="0"/><stop offset="1" stop-color="#6a9bff"/></linearGradient><linearGradient id="_ÂÁ_Ï_ÌÌ_È_ËÂÌÚ_54-2" x1="129.33" y1="180.35" x2="221.06" y2="180.35" xlink:href="#_ÂÁ_Ï_ÌÌ_È_ËÂÌÚ_54"/><linearGradient id="_ÂÁ_Ï_ÌÌ_È_ËÂÌÚ_126" x1="99.36" y1="139.79" x2="99.36" y2="93" gradientTransform="translate(9.6 16.57) rotate(3.92)" gradientUnits="userSpaceOnUse"><stop offset="0"/><stop offset="1" stop-color="#00e3ff"/></linearGradient><linearGradient id="_ÂÁ_Ï_ÌÌ_È_ËÂÌÚ_416-4" x1="103.49" y1="191.59" x2="103.49" y2="169.66" xlink:href="#_ÂÁ_Ï_ÌÌ_È_ËÂÌÚ_416"/><linearGradient id="_ÂÁ_Ï_ÌÌ_È_ËÂÌÚ_28-8" x1="63.14" y1="179.48" x2="73.52" y2="96.83" xlink:href="#_ÂÁ_Ï_ÌÌ_È_ËÂÌÚ_28"/><linearGradient id="_ÂÁ_Ï_ÌÌ_È_ËÂÌÚ_8-2" x1="100.54" y1="102.08" x2="100.54" y2="78.78" gradientTransform="matrix(0.97, 0.23, -0.23, 0.97, 28.98, 57.57)" xlink:href="#_ÂÁ_Ï_ÌÌ_È_ËÂÌÚ_8"/><linearGradient id="_ÂÁ_Ï_ÌÌ_È_ËÂÌÚ_65-2" x1="104.89" y1="168.69" x2="104.89" y2="158.8" xlink:href="#_ÂÁ_Ï_ÌÌ_È_ËÂÌÚ_65"/><linearGradient id="_ÂÁ_Ï_ÌÌ_È_ËÂÌÚ_134" x1="250.6" y1="63.88" x2="268.81" y2="63.88" gradientUnits="userSpaceOnUse"><stop offset="0"/><stop offset="1" stop-color="#d4e2ff"/></linearGradient><linearGradient id="_ÂÁ_Ï_ÌÌ_È_ËÂÌÚ_143" x1="74.3" y1="62.61" x2="94.37" y2="62.61" gradientUnits="userSpaceOnUse"><stop offset="0" stop-color="#d4e2ff"/><stop offset="1"/></linearGradient><linearGradient id="_ÂÁ_Ï_ÌÌ_È_ËÂÌÚ_46-7" x1="55.74" y1="132.22" x2="55.74" y2="109.09" xlink:href="#_ÂÁ_Ï_ÌÌ_È_ËÂÌÚ_46"/><radialGradient id="_ÂÁ_Ï_ÌÌ_È_ËÂÌÚ_91-2" cx="215.9" cy="128.77" r="30.4" gradientTransform="matrix(1, 0, 0, 1, 0, 0)" xlink:href="#_ÂÁ_Ï_ÌÌ_È_ËÂÌÚ_91"/><radialGradient id="_ÂÁ_Ï_ÌÌ_È_ËÂÌÚ_91-3" cx="1670.8" cy="128.78" r="30.43" gradientTransform="matrix(-1, 0, 0, 1, 1799.69, 0)" xlink:href="#_ÂÁ_Ï_ÌÌ_È_ËÂÌÚ_91"/><linearGradient id="_ÂÁ_Ï_ÌÌ_È_ËÂÌÚ_153-2" x1="226.74" y1="275.67" x2="226.74" y2="220.54" xlink:href="#_ÂÁ_Ï_ÌÌ_È_ËÂÌÚ_153"/><linearGradient id="_ÂÁ_Ï_ÌÌ_È_ËÂÌÚ_46-8" x1="189.93" y1="292.11" x2="195.06" y2="251.27" xlink:href="#_ÂÁ_Ï_ÌÌ_È_ËÂÌÚ_46"/><linearGradient id="_ÂÁ_Ï_ÌÌ_È_ËÂÌÚ_28-9" x1="199.16" y1="291.61" x2="199.16" y2="278.43" xlink:href="#_ÂÁ_Ï_ÌÌ_È_ËÂÌÚ_28"/><linearGradient id="_ÂÁ_Ï_ÌÌ_È_ËÂÌÚ_143-2" x1="168.4" y1="332.65" x2="168.4" y2="320.98" xlink:href="#_ÂÁ_Ï_ÌÌ_È_ËÂÌÚ_143"/><linearGradient id="_ÂÁ_Ï_ÌÌ_È_ËÂÌÚ_153-3" x1="242.08" y1="339.27" x2="242.08" y2="322.05" xlink:href="#_ÂÁ_Ï_ÌÌ_È_ËÂÌÚ_153"/><linearGradient id="_ÂÁ_Ï_ÌÌ_È_ËÂÌÚ_153-4" x1="188.35" y1="291.61" x2="188.35" y2="255.48" xlink:href="#_ÂÁ_Ï_ÌÌ_È_ËÂÌÚ_153"/><linearGradient id="_ÂÁ_Ï_ÌÌ_È_ËÂÌÚ_416-5" x1="141.53" y1="244.68" x2="141.53" y2="237" xlink:href="#_ÂÁ_Ï_ÌÌ_È_ËÂÌÚ_416"/><linearGradient id="_ÂÁ_Ï_ÌÌ_È_ËÂÌÚ_14-2" x1="134.75" y1="243.77" x2="135.57" y2="232.12" xlink:href="#_ÂÁ_Ï_ÌÌ_È_ËÂÌÚ_14"/></defs><title>lose</title><g class="cls-1"><g id="Camada_1" data-name="Camada 1"><path class="cls-2" d="M151,333.24c-2.15.8-75.14,8.22-83.78,0-8.45-8,49.26-43.8,57.73-43.16,2.08.14,3.71,2.19,6.81,6.69C141.36,310.57,151,333.24,151,333.24Z" transform="translate(-4 -33.15)"/><path class="cls-3" d="M125,290.08c-3.77.48,9.42,38.26,26,43.15C151,333.23,134.88,288.8,125,290.08Z" transform="translate(-4 -33.15)"/><path class="cls-4" d="M151,333.24c-2.15.8-74.74,7.77-83.78,0,0,0,21.42,3.56,40.94-3.19s19.91-23.81,19.91-23.81l1.19-14.39C138.87,305.64,151,333.24,151,333.24Z" transform="translate(-4 -33.15)"/><path class="cls-5" d="M74,270.4s-3.55-16.9,11.86-34.93c20-23.36,61.63-40.65,68.6-37.44s-15.82,39.91-15.82,39.91-28.85,7.28-44,25S74,270.4,74,270.4Z" transform="translate(-4 -33.15)"/><path class="cls-6" d="M221.75,292.89c-2,16.39-9.56,29.3-22.4,36.31-8.61,4.7-19.59,6.76-32.83,5.42-19.62-2-31.59-16.66-36.85-36.67,0,0,0,0,0-.07a107.59,107.59,0,0,1-3.17-29.37c.75-33.77,18.62-60.38,30.93-68.66,20.38-13.7,49.19-5.79,52.41,18.28C212.41,237.5,225.08,265.47,221.75,292.89Z" transform="translate(-4 -33.15)"/><path class="cls-7" d="M203.59,205.11c-3.43-1.38-5.43,30.46,8.65,49,0,0,6.41-4.1,3.65-19.71S208.21,207,203.59,205.11Z" transform="translate(-4 -33.15)"/><path class="cls-8" d="M201.1,216.73s12.75,18.09,8.62,33.68C209.72,250.41,201.62,238.25,201.1,216.73Z" transform="translate(-4 -33.15)"/><path class="cls-9" d="M199.35,329.2c-8.61,4.7-19.59,6.76-32.83,5.42-19.62-2-31.59-16.66-36.85-36.67,0,0,0,0,0-.07-5.48-22.09,4.45-51.52,34.32-51.52S208.5,277,210,298.54C210.55,307.12,209.56,324.15,199.35,329.2Z" transform="translate(-4 -33.15)"/><path class="cls-10" d="M259.42,322.61c.36,8.32-4.16,14.37-12.31,16-4.18.87-13.41.83-22.39-.13l-.53,0c-10.85-1.17-21.21-3.61-21.74-7.32a45.24,45.24,0,0,1-.44-7.68c.25-21.61,12.77-45.94,20.78-44.28,4.92,1,12.09,5.79,18.78,12.25a73.52,73.52,0,0,1,14,18A31,31,0,0,1,259.42,322.61Z" transform="translate(-4 -33.15)"/><path class="cls-11" d="M241.57,291.45s-15.26-4.34-27.29,5.59c-8.53,7-11,21.81-12.27,26.44.25-21.61,12.77-45.94,20.78-44.28C227.71,280.22,234.88,285,241.57,291.45Z" transform="translate(-4 -33.15)"/><path class="cls-12" d="M255.52,258.56c-1.4,7.64-17.77,18.87-45.45,16.87,0,0-13.2-10.63-11.9-22.31,0,0,1.18-.46,2.84-1.29,3.25-1.61,13.55-5.58,14.58-9.07,1.95-6.62-5-15.81-9.27-25.42-3.92-8.9-.94-16.69,1.12-17.11s15.41,4.2,28.64,16.51c1.35,1.25,2.63,2.53,3.79,3.78l0,0C254.56,236.14,256.81,251.49,255.52,258.56Z" transform="translate(-4 -33.15)"/><path class="cls-13" d="M200.57,252.92s-11.86-8.44-20.31-12.06c0,0-8.29,1.6-9.77,6S187.1,260,187.1,260Z" transform="translate(-4 -33.15)"/><path class="cls-14" d="M81.73,254.55S88.88,240.8,94.57,239s9.22-1.06,10.18,0,1,6.42-1.2,10.61-11.36,8.93-11.36,8.93Z" transform="translate(-4 -33.15)"/><path class="cls-15" d="M93.56,239.46s1,4.32,4.66,6.33S104.5,247,104.5,247s3.24-6.88-.31-9.06C101.1,236.05,94.33,238.16,93.56,239.46Z" transform="translate(-4 -33.15)"/><path class="cls-16" d="M190.93,304.21c-9.6,3.76-25.58-12.79-35.66-18.78s-27.81-7.88-35.85-4.39-20.19,18.08-31.18,16.19c-2-.34-2.7-5.43-2.25-12.44.87-14.52,6.53-37.19,15.38-42.79,13.14-8.3,66.23-6.15,78.82,5.63,6.72,6.3,11.25,21.29,13,34.25C194.66,293.2,194.05,303,190.93,304.21Z" transform="translate(-4 -33.15)"/><path class="cls-17" d="M190.93,304.21c-9.6,3.76-25.58-12.79-35.66-18.78s-27.81-7.88-35.85-4.39-20.19,18.08-31.18,16.19c-2-.34-2.7-5.43-2.25-12.44l3-5.11,20-12.21s.17,7.24,2.06,8.2,8.83-.56,21.91-.68,23.26,6.55,29.42,2.67S173,264.35,173,264.35l5.75-.63,14.43,18.16C194.66,293.2,194.05,303,190.93,304.21Z" transform="translate(-4 -33.15)"/><path class="cls-18" d="M80.55,250.42s12.64-.83,27.42,10c0,0,4.12,15.15-4.39,24.58a49.49,49.49,0,0,1-15.51,5C78.92,291.44,80.55,250.42,80.55,250.42Z" transform="translate(-4 -33.15)"/><path class="cls-19" d="M198.17,253.13s11.37,0,17.6,9.65c5.24,8.11-2.83,12.81-2.83,12.81S199.07,274.65,198.17,253.13Z" transform="translate(-4 -33.15)"/><path class="cls-20" d="M80.55,250.42c-5.84-.37-10.28,27.44-4.45,35.89S96.38,287.92,99,284.9s6.68-16.29,5.16-21.72S94.85,251.32,80.55,250.42Z" transform="translate(-4 -33.15)"/><path class="cls-21" d="M103.59,240.86s-1.07,6.9,21.31,9.71,43.11,1.13,50.94-5.89C175.84,244.68,139.52,230.21,103.59,240.86Z" transform="translate(-4 -33.15)"/><path class="cls-22" d="M54.37,326.69c-16.4,0-41.5-1.24-48.41-8.49A6.49,6.49,0,0,1,4,313c.85-8.38,13.88-12.95,27.68-17.79,13.61-4.77,27.67-9.71,29.69-18.15,1.3-5.43-.66-12.07-2.55-18.5-2.46-8.37-5-17-.84-23.9,3.15-5.17,9.72-8.66,20.1-10.67,39.55-7.67,58.36,13.09,58.54,13.3l-1.59,1.4c-.17-.2-18.26-20-56.54-12.62-9.77,1.89-15.88,5.06-18.69,9.69-3.69,6.07-1.39,13.9,1.06,22.2,2,6.69,4,13.62,2.57,19.6-2.28,9.56-16.9,14.69-31,19.65-12.57,4.41-25.56,9-26.27,16a4.36,4.36,0,0,0,1.35,3.58c9.63,10.09,60.94,7.52,61.45,7.5l.11,2.12C68.36,326.4,62.41,326.69,54.37,326.69Z" transform="translate(-4 -33.15)"/><path class="cls-23" d="M129.66,204.58s12.2,19.76,35.92,18.87,36.4-21.6,36.4-21.6l-69,1.29Z" transform="translate(-4 -33.15)"/><path class="cls-24" d="M225.94,54.77s12.85-11.09,28.57-13c0,0,4.82,2.36,10.38,19.69S260.18,113,260.18,113Z" transform="translate(-4 -33.15)"/><path class="cls-25" d="M254.51,41.75a55.57,55.57,0,0,0-12.72,35.62l4.92,3.11L261,50.81S256.28,41.49,254.51,41.75Z" transform="translate(-4 -33.15)"/><path class="cls-26" d="M246.24,79s-3.38-18.77,9-32.57c0,0,14,6.57,19.74,31s-9.26,39-9.26,39Z" transform="translate(-4 -33.15)"/><path class="cls-27" d="M239.06,47.22c-2.38,1.28-2.19,3.84,2.73,3.2s7.59-4.49,7.06-5.24S241.72,45.78,239.06,47.22Z" transform="translate(-4 -33.15)"/><path class="cls-28" d="M118.13,57.54s-12.85-11.08-28.58-13c0,0-4.81,2.36-10.37,19.68s4.7,51.56,4.7,51.56Z" transform="translate(-4 -33.15)"/><path class="cls-29" d="M89.55,44.53a55.55,55.55,0,0,1,12.73,35.62l-4.92,3.1L83,53.58S87.78,44.27,89.55,44.53Z" transform="translate(-4 -33.15)"/><path class="cls-30" d="M97.83,81.76s3.38-18.78-9-32.58c0,0-14,6.58-19.74,31S80,120.76,80,120.76Z" transform="translate(-4 -33.15)"/><path class="cls-27" d="M105,50c2.37,1.28,2.18,3.84-2.73,3.2S94.69,48.7,95.22,48,102.34,48.56,105,50Z" transform="translate(-4 -33.15)"/><path class="cls-31" d="M82,176.28c19.68,45.41,167,31.25,184.61-6.05,19.25-40.8-25-141.63-95.62-136.92C111.38,37.29,56.72,117.91,82,176.28Z" transform="translate(-4 -33.15)"/><path class="cls-32" d="M90.16,165.15C109,202.39,237.58,196.24,256.37,162,272.32,132.92,234.64,44.4,170,47.55S72.09,129.4,90.16,165.15Z" transform="translate(-4 -33.15)"/><path class="cls-27" d="M191.83,41.75c-1.35,1.6,14.28,8.39,16.36,7.43S196.32,36.39,191.83,41.75Z" transform="translate(-4 -33.15)"/><path class="cls-33" d="M112.83,84.85c-1.48,8.87,15.33,7.86,42.21,7,32.31-1.07,64.76,26.74,83.65,6.79,3.11-3.29-27.81-46.48-65.14-45.51S114.12,77.15,112.83,84.85Z" transform="translate(-4 -33.15)"/><path class="cls-34" d="M129.48,177.42c-1.71,6.43,11.74,12.86,44.81,11.24,40-2,48.48-10.34,46.51-12.66-1.18-1.39-13.16,6.15-46-1.05C153.12,170.2,131.27,170.65,129.48,177.42Z" transform="translate(-4 -33.15)"/><path class="cls-35" d="M93.74,157.43A87.48,87.48,0,0,1,94,135.6c1.64-12.51,5-20.59,7-19.46s1.7,13.39,2.88,25.47c.92,9.39,2.72,18.21,2.72,18.21S98,168.09,93.74,157.43Z" transform="translate(-4 -33.15)"/><path class="cls-36" d="M96.5,191.59s2-2.15,12.67-8.42c7.15-4.21,14.66-9.18,15.73-11,1.58-4.3-30.63-1.76-30.63-1.76L82,176.28A41.84,41.84,0,0,0,96.5,191.59Z" transform="translate(-4 -33.15)"/><path class="cls-37" d="M71.89,96.62s8.31,5.35,2.86,17.74c0,0-38.82,21.14-36.58,44.18,1.88,19.23,55.52,9.92,55.52,9.92l1.92,6.42s-45.56,8.91-61.29-1.8c0,0-5.35-12.7,7.92-35.59A266.53,266.53,0,0,1,71.89,96.62Z" transform="translate(-4 -33.15)"/><path class="cls-38" d="M86.9,166.68c-4.89,5.53,5.49,11.58,14,12.5,9.57,1,26.57-2.74,25.54-12.38S98.36,153.71,86.9,166.68Z" transform="translate(-4 -33.15)"/><path class="cls-39" d="M87.55,167.69c-.29,1.58,33.87,2,34.67-4.08S89.79,155.5,87.55,167.69Z" transform="translate(-4 -33.15)"/><path class="cls-40" d="M266.54,57.42S262,51.81,255.85,53.3,249.27,74.23,253,74.71,258.21,64,261,62.19s7.77-1.08,7.77-1.08Z" transform="translate(-4 -33.15)"/><path class="cls-41" d="M74.3,65.71S76.68,63,82,63.88s8.43,11.85,11.16,10.75.73-18.88-6.5-24.11C86.69,50.52,77.37,58.48,74.3,65.71Z" transform="translate(-4 -33.15)"/><path class="cls-42" d="M64.44,109.09s-18.57,21.56-17.39,23.06S65.61,111.27,64.44,109.09Z" transform="translate(-4 -33.15)"/><path class="cls-43" d="M197.42,130.14c3.36,7.13,32.71,8.05,37.44-3.21,4.25-10.11-8.92-36.88-26.46-34.45C195.14,94.32,191.75,118.1,197.42,130.14Z" transform="translate(-4 -33.15)"/><path class="cls-44" d="M147.37,130.14c-3.36,7.13-32.71,8.05-37.44-3.21-4.24-10.11,8.2-35.83,26.46-34.45C149.74,93.49,153.05,118.1,147.37,130.14Z" transform="translate(-4 -33.15)"/><path class="cls-45" d="M162.78,152.74s9.93-9.56,17.32-9,2.14,10.17,2.14,10.17A43.82,43.82,0,0,1,162.78,152.74Z" transform="translate(-4 -33.15)"/><path class="cls-46" d="M255.52,258.56c-1.4,7.64-17.77,18.87-45.45,16.87,0,0-13.2-10.63-11.9-22.31,0,0-1.35.91.31.08l5.48.94s17.31,4.47,36,1.27,5.57-27.06-.07-34.87C254.56,236.14,256.81,251.49,255.52,258.56Z" transform="translate(-4 -33.15)"/><path class="cls-47" d="M212.36,278.47a1.3,1.3,0,0,0-.25.1l-.72.28a.19.19,0,0,1-.13.06c-1.32.51-3.69,1.47-6.56,2.7-1.38.57-2.86,1.25-4.39,1.95a145.67,145.67,0,0,0-14.33,8s0,0,0,0-14.6-6.71-15.41-15.56c-.55-6.14,3.18-15.16,7.75-20.57,2-2.4,4.2-4.1,6.24-4.54,6.64-1.42,13.88,1.78,13.88,1.78a15.61,15.61,0,0,1,13.94,9.13C216.65,271.23,212.36,278.47,212.36,278.47Z" transform="translate(-4 -33.15)"/><path class="cls-48" d="M212.36,278.47a1.3,1.3,0,0,0-.25.1c-.21.09-.47.17-.72.28a.19.19,0,0,1-.13.06c-1.32.62-3.1,1.55-5,2.66-7.11,3.94-16.71,10-16.71,10H186s0,0,0,0A24.61,24.61,0,0,1,198.06,281,33.54,33.54,0,0,1,212.36,278.47Z" transform="translate(-4 -33.15)"/><path class="cls-49" d="M145.34,321s7.64,10.38,23.33,11.49,22.79-3.29,22.79-3.29a13,13,0,0,0-9.25-6c-6.71-1.11-14.35,4.61-21.72,3.62S145.34,321,145.34,321Z" transform="translate(-4 -33.15)"/><path class="cls-50" d="M259.42,322.61c.36,8.32-4.16,14.37-12.31,16-4.18.87-13.41.83-22.39-.13,2.74.22,15.43,1,18.27-2.33,3.23-3.76,3.42-10,7-12.71s7.09-.7,8.24-.9A5.09,5.09,0,0,1,259.42,322.61Z" transform="translate(-4 -33.15)"/><path class="cls-27" d="M238.88,317.76c-.54,1.56,4.86,6,7.94,4.89s.67-5.63-.8-6.57S239.32,316.48,238.88,317.76Z" transform="translate(-4 -33.15)"/><path class="cls-27" d="M78.34,321c-.18,1.44,8.27-2,9.78-4.73s2-5.85,1.51-6S78.61,318.77,78.34,321Z" transform="translate(-4 -33.15)"/><path class="cls-27" d="M184.42,253.13c-.48,1.4,5.43,7.78,6.9,6.84s.27-5.5-2.68-6.84S184.69,252.36,184.42,253.13Z" transform="translate(-4 -33.15)"/><path class="cls-27" d="M224.42,235.49c-1.71.43-1.47,3-2.95,5.37s-4.24,4.09-3.93,4.63,7.28.42,8.49-3.14S225.39,235.25,224.42,235.49Z" transform="translate(-4 -33.15)"/><path class="cls-27" d="M222.6,232.82c-.56-.11-2.36-3.65-1.94-4.8s2.38.18,2.74,1.33S223.48,233,222.6,232.82Z" transform="translate(-4 -33.15)"/><path class="cls-27" d="M80.43,252.59c.16,2.54,9.54,3,10.48,1.71s-.81-2.51-3.91-3S80.4,252,80.43,252.59Z" transform="translate(-4 -33.15)"/><path class="cls-51" d="M206.21,281.57c-7.11,3.94-16.71,10-16.71,10H186s-14.6-6.71-15.41-15.56c-.55-6.14,3.18-15.16,7.75-20.57,1.1,2.87,7.3,18.34,13.64,22.94a16,16,0,0,0,6.12,2.57,30.43,30.43,0,0,0,6.64.62C205.23,281.61,205.74,281.59,206.21,281.57Z" transform="translate(-4 -33.15)"/><path class="cls-52" d="M128.35,241.51s.91,2.9,9.89,3.17,16.48-6,16.48-6L137.44,237Z" transform="translate(-4 -33.15)"/><path class="cls-27" d="M109,218.67c-.13,1.28,12.51-1.94,11.17-6C119.29,210.08,109.19,216.39,109,218.67Z" transform="translate(-4 -33.15)"/><path class="cls-53" d="M128.35,241.51l-.8-8.6s5.63-1,8-.78,7.24,10.09,7.24,10.09S134.78,246.2,128.35,241.51Z" transform="translate(-4 -33.15)"/></g></g></svg>