<svg id="Camada_1" data-name="Camada 1" xmlns="http://www.w3.org/2000/svg" viewBox="0 0 343.89 342.17"><defs><style>.cls-1{fill:#e5f6ff;}.cls-2{fill:#27c195;}</style></defs><title>win-bg</title><path class="cls-1" d="M54.6,337.44c16.75,27.68,157.08,20.2,209.59-5.52S322,85.52,297,52.58,113.43,9.12,48.42,44.87,32.3,300.59,54.6,337.44Z" transform="translate(-15.92 -12.83)"/><path class="cls-1" d="M298.36,38.07c.14-13.52,30.54-29,48.06-24.42s20.24,65-6.44,67S298.18,54.92,298.36,38.07Z" transform="translate(-15.92 -12.83)"/><path class="cls-1" d="M21.68,323.58c-2.33-10.14,5.49-20.92,12.66-19.05S49.62,340.16,38.71,341,23.23,330.3,21.68,323.58Z" transform="translate(-15.92 -12.83)"/><path class="cls-2" d="M200,316.68c-43.49,0-78.88-34.06-78.88-75.92s35.39-75.92,78.88-75.92,78.87,34.06,78.87,75.92S243.51,316.68,200,316.68Zm0-143c-38.41,0-69.65,30.07-69.65,67s31.24,67,69.65,67,69.64-30.07,69.64-67S238.42,173.72,200,173.72Z" transform="translate(-15.92 -12.83)"/><path class="cls-2" d="M199.32,281.59a4.71,4.71,0,0,1-3.55-1.6l-31.55-36.53a4.33,4.33,0,0,1,.6-6.25,4.74,4.74,0,0,1,6.5.58l26.82,31,30.31-65a4.68,4.68,0,0,1,6.1-2.23,4.37,4.37,0,0,1,2.32,5.87L203.53,279a4.58,4.58,0,0,1-3.59,2.58A4.3,4.3,0,0,1,199.32,281.59Z" transform="translate(-15.92 -12.83)"/></svg>