<svg xmlns="http://www.w3.org/2000/svg" xmlns:xlink="http://www.w3.org/1999/xlink" viewBox="0 0 351.83 349.25"><defs><style>.cls-1{isolation:isolate;}.cls-2{fill:url(#_ÂÁ_Ï_ÌÌ_È_ËÂÌÚ_17);}.cls-3{fill:url(#_ÂÁ_Ï_ÌÌ_È_ËÂÌÚ_264);}.cls-4{fill:url(#_ÂÁ_Ï_ÌÌ_È_ËÂÌÚ_46);}.cls-5{fill:url(#_ÂÁ_Ï_ÌÌ_È_ËÂÌÚ_36);}.cls-27,.cls-30,.cls-33,.cls-43,.cls-49,.cls-6,.cls-60{opacity:0.3;}.cls-27,.cls-30,.cls-33,.cls-38,.cls-43,.cls-46,.cls-49,.cls-6,.cls-62,.cls-7{mix-blend-mode:multiply;}.cls-6{fill:url(#_ÂÁ_Ï_ÌÌ_È_ËÂÌÚ_153);}.cls-19,.cls-20,.cls-21,.cls-38,.cls-46,.cls-62,.cls-7{opacity:0.5;}.cls-7{fill:url(#_ÂÁ_Ï_ÌÌ_È_ËÂÌÚ_416);}.cls-8{fill:url(#_ÂÁ_Ï_ÌÌ_È_ËÂÌÚ_73);}.cls-9{fill:#dfe3fb;}.cls-10{fill:url(#_ÂÁ_Ï_ÌÌ_È_ËÂÌÚ_132);}.cls-11{fill:url(#_ÂÁ_Ï_ÌÌ_È_ËÂÌÚ_264-2);}.cls-12{fill:url(#_ÂÁ_Ï_ÌÌ_È_ËÂÌÚ_28);}.cls-13{fill:url(#_ÂÁ_Ï_ÌÌ_È_ËÂÌÚ_17-2);}.cls-14{fill:url(#_ÂÁ_Ï_ÌÌ_È_ËÂÌÚ_28-2);}.cls-15{fill:url(#_ÂÁ_Ï_ÌÌ_È_ËÂÌÚ_8);}.cls-16{fill:url(#_ÂÁ_Ï_ÌÌ_È_ËÂÌÚ_65);}.cls-17{fill:url(#_ÂÁ_Ï_ÌÌ_È_ËÂÌÚ_17-3);}.cls-18{fill:url(#_ÂÁ_Ï_ÌÌ_È_ËÂÌÚ_17-4);}.cls-19,.cls-20,.cls-21,.cls-22,.cls-23,.cls-39,.cls-40,.cls-60,.cls-61,.cls-63{mix-blend-mode:screen;}.cls-19{fill:url(#_ÂÁ_Ï_ÌÌ_È_ËÂÌÚ_54);}.cls-20{fill:url(#_ÂÁ_Ï_ÌÌ_È_ËÂÌÚ_54-2);}.cls-21{fill:url(#_ÂÁ_Ï_ÌÌ_È_ËÂÌÚ_54-3);}.cls-22,.cls-23,.cls-39,.cls-40,.cls-61,.cls-63{opacity:0.72;}.cls-22{fill:url(#_ÂÁ_Ï_ÌÌ_È_ËÂÌÚ_143);}.cls-23{fill:url(#_ÂÁ_Ï_ÌÌ_È_ËÂÌÚ_134);}.cls-24{fill:#2f95cd;}.cls-25{fill:url(#_ÂÁ_Ï_ÌÌ_È_ËÂÌÚ_129);}.cls-26{fill:url(#_ÂÁ_Ï_ÌÌ_È_ËÂÌÚ_28-3);}.cls-27{fill:url(#_ÂÁ_Ï_ÌÌ_È_ËÂÌÚ_153-2);}.cls-28{fill:url(#_ÂÁ_Ï_ÌÌ_È_ËÂÌÚ_46-2);}.cls-29{fill:url(#_ÂÁ_Ï_ÌÌ_È_ËÂÌÚ_36-2);}.cls-30{fill:url(#_ÂÁ_Ï_ÌÌ_È_ËÂÌÚ_153-3);}.cls-31{fill:#fff;}.cls-32{fill:url(#_ÂÁ_Ï_ÌÌ_È_ËÂÌÚ_46-3);}.cls-33{fill:url(#_ÂÁ_Ï_ÌÌ_È_ËÂÌÚ_153-4);}.cls-34{fill:url(#_ÂÁ_Ï_ÌÌ_È_ËÂÌÚ_28-4);}.cls-35{fill:url(#_ÂÁ_Ï_ÌÌ_È_ËÂÌÚ_91);}.cls-36{fill:url(#_ÂÁ_Ï_ÌÌ_È_ËÂÌÚ_36-3);}.cls-37{fill:#6340a2;}.cls-38{fill:url(#_ÂÁ_Ï_ÌÌ_È_ËÂÌÚ_416-2);}.cls-39{fill:url(#_ÂÁ_Ï_ÌÌ_È_ËÂÌÚ_134-2);}.cls-40{fill:url(#_ÂÁ_Ï_ÌÌ_È_ËÂÌÚ_143-2);}.cls-41{fill:url(#_ÂÁ_Ï_ÌÌ_È_ËÂÌÚ_46-4);}.cls-42{fill:url(#_ÂÁ_Ï_ÌÌ_È_ËÂÌÚ_28-5);}.cls-43{fill:url(#_ÂÁ_Ï_ÌÌ_È_ËÂÌÚ_153-5);}.cls-44{fill:url(#_ÂÁ_Ï_ÌÌ_È_ËÂÌÚ_46-5);}.cls-45{fill:url(#_ÂÁ_Ï_ÌÌ_È_ËÂÌÚ_28-6);}.cls-46{fill:url(#_ÂÁ_Ï_ÌÌ_È_ËÂÌÚ_416-3);}.cls-47{fill:url(#_ÂÁ_Ï_ÌÌ_È_ËÂÌÚ_46-6);}.cls-48{fill:url(#_ÂÁ_Ï_ÌÌ_È_ËÂÌÚ_46-7);}.cls-49{fill:url(#_ÂÁ_Ï_ÌÌ_È_ËÂÌÚ_153-6);}.cls-50{fill:url(#_ÂÁ_Ï_ÌÌ_È_ËÂÌÚ_28-7);}.cls-51{fill:url(#_ÂÁ_Ï_ÌÌ_È_ËÂÌÚ_29);}.cls-52{fill:url(#_ÂÁ_Ï_ÌÌ_È_ËÂÌÚ_28-8);}.cls-53{fill:url(#_ÂÁ_Ï_ÌÌ_È_ËÂÌÚ_46-8);}.cls-54{fill:url(#_ÂÁ_Ï_ÌÌ_È_ËÂÌÚ_28-9);}.cls-55{fill:url(#_ÂÁ_Ï_ÌÌ_È_ËÂÌÚ_8-2);}.cls-56{fill:#ff7ae8;}.cls-57{fill:url(#_ÂÁ_Ï_ÌÌ_È_ËÂÌÚ_65-2);}.cls-58{fill:url(#_ÂÁ_Ï_ÌÌ_È_ËÂÌÚ_8-3);}.cls-59{fill:url(#_ÂÁ_Ï_ÌÌ_È_ËÂÌÚ_33);}.cls-60{fill:url(#_ÂÁ_Ï_ÌÌ_È_ËÂÌÚ_27);}.cls-61{fill:url(#_ÂÁ_Ï_ÌÌ_È_ËÂÌÚ_27-2);}.cls-62{fill:#c44fe5;}.cls-63{fill:url(#_ÂÁ_Ï_ÌÌ_È_ËÂÌÚ_27-3);}</style><linearGradient id="_ÂÁ_Ï_ÌÌ_È_ËÂÌÚ_17" x1="149.53" y1="137.68" x2="149.53" y2="86" gradientTransform="translate(25.62 -90.5) rotate(10.91)" gradientUnits="userSpaceOnUse"><stop offset="0" stop-color="#45ffcd"/><stop offset="1" stop-color="#22e0ff"/></linearGradient><linearGradient id="_ÂÁ_Ï_ÌÌ_È_ËÂÌÚ_264" x1="164.03" y1="115.93" x2="164.03" y2="71.81" gradientTransform="translate(25.62 -90.5) rotate(10.91)" gradientUnits="userSpaceOnUse"><stop offset="0" stop-color="#b9acf4"/><stop offset="1" stop-color="#e1d1f5"/></linearGradient><linearGradient id="_ÂÁ_Ï_ÌÌ_È_ËÂÌÚ_46" x1="208.29" y1="233.05" x2="229.14" y2="67.03" gradientTransform="translate(25.62 -90.5) rotate(10.91)" gradientUnits="userSpaceOnUse"><stop offset="0" stop-color="#cbc1f7"/><stop offset="1" stop-color="#e8dcf7"/></linearGradient><linearGradient id="_ÂÁ_Ï_ÌÌ_È_ËÂÌÚ_36" x1="157.8" y1="212.45" x2="294.08" y2="212.45" gradientTransform="translate(25.62 -90.5) rotate(10.91)" gradientUnits="userSpaceOnUse"><stop offset="0" stop-color="#8879ea"/><stop offset="1" stop-color="#9e8cef"/></linearGradient><linearGradient id="_ÂÁ_Ï_ÌÌ_È_ËÂÌÚ_153" x1="217.2" y1="229.37" x2="217.2" y2="120.97" gradientTransform="translate(25.62 -90.5) rotate(10.91)" gradientUnits="userSpaceOnUse"><stop offset="0" stop-color="#9d68c2"/><stop offset="1" stop-color="#ccedff"/></linearGradient><linearGradient id="_ÂÁ_Ï_ÌÌ_È_ËÂÌÚ_416" x1="225.94" y1="227.05" x2="225.94" y2="195.52" gradientTransform="translate(25.62 -90.5) rotate(10.91)" gradientUnits="userSpaceOnUse"><stop offset="0" stop-color="#8da4e5"/><stop offset="1" stop-color="#755cbb"/></linearGradient><linearGradient id="_ÂÁ_Ï_ÌÌ_È_ËÂÌÚ_73" x1="218" y1="230.01" x2="220.58" y2="209.48" gradientTransform="translate(2.31 -77.13) rotate(3.28)" gradientUnits="userSpaceOnUse"><stop offset="0" stop-color="#5e36cc"/><stop offset="1" stop-color="#6c4a96"/></linearGradient><linearGradient id="_ÂÁ_Ï_ÌÌ_È_ËÂÌÚ_132" x1="192.12" y1="197.4" x2="192.12" y2="71.71" gradientTransform="translate(25.62 -90.5) rotate(10.91)" gradientUnits="userSpaceOnUse"><stop offset="0" stop-color="#0665bd"/><stop offset="1" stop-color="#1a1f77"/></linearGradient><linearGradient id="_ÂÁ_Ï_ÌÌ_È_ËÂÌÚ_264-2" x1="275.01" y1="90.36" x2="275.01" y2="5.28" gradientTransform="translate(1.72 10.57) rotate(-0.29)" xlink:href="#_ÂÁ_Ï_ÌÌ_È_ËÂÌÚ_264"/><linearGradient id="_ÂÁ_Ï_ÌÌ_È_ËÂÌÚ_28" x1="281.53" y1="87.13" x2="281.53" y2="5.67" gradientTransform="translate(1.72 10.57) rotate(-0.29)" gradientUnits="userSpaceOnUse"><stop offset="0" stop-color="#be9dea"/><stop offset="1" stop-color="#9e8cef"/></linearGradient><linearGradient id="_ÂÁ_Ï_ÌÌ_È_ËÂÌÚ_17-2" x1="287.68" y1="89.15" x2="287.68" y2="9.31" gradientTransform="translate(1.72 10.57) rotate(-0.29)" xlink:href="#_ÂÁ_Ï_ÌÌ_È_ËÂÌÚ_17"/><linearGradient id="_ÂÁ_Ï_ÌÌ_È_ËÂÌÚ_28-2" x1="102.27" y1="222.45" x2="108.11" y2="175.95" gradientTransform="translate(25.62 -90.5) rotate(10.91)" xlink:href="#_ÂÁ_Ï_ÌÌ_È_ËÂÌÚ_28"/><linearGradient id="_ÂÁ_Ï_ÌÌ_È_ËÂÌÚ_8" x1="116.63" y1="160.35" x2="116.63" y2="139.12" gradientTransform="translate(29.53 -37.39) rotate(16.36)" gradientUnits="userSpaceOnUse"><stop offset="0" stop-color="#dd1a8f"/><stop offset="1" stop-color="#fe117e"/></linearGradient><linearGradient id="_ÂÁ_Ï_ÌÌ_È_ËÂÌÚ_65" x1="108.2" y1="220.1" x2="108.2" y2="210.4" gradientTransform="matrix(1, 0.05, -0.05, 1, 1.74, -85.73)" gradientUnits="userSpaceOnUse"><stop offset="0" stop-color="#d93de3"/><stop offset="1" stop-color="#ff6dba"/></linearGradient><linearGradient id="_ÂÁ_Ï_ÌÌ_È_ËÂÌÚ_17-3" x1="219.51" y1="132.49" x2="219.51" y2="120.96" xlink:href="#_ÂÁ_Ï_ÌÌ_È_ËÂÌÚ_17"/><linearGradient id="_ÂÁ_Ï_ÌÌ_È_ËÂÌÚ_17-4" x1="146.16" y1="145.83" x2="146.16" y2="135.13" xlink:href="#_ÂÁ_Ï_ÌÌ_È_ËÂÌÚ_17"/><linearGradient id="_ÂÁ_Ï_ÌÌ_È_ËÂÌÚ_54" x1="140.79" y1="99.65" x2="248.81" y2="99.65" gradientTransform="translate(25.62 -90.5) rotate(10.91)" gradientUnits="userSpaceOnUse"><stop offset="0"/><stop offset="1" stop-color="#6a9bff"/></linearGradient><linearGradient id="_ÂÁ_Ï_ÌÌ_È_ËÂÌÚ_54-2" x1="147.46" y1="186.89" x2="226.62" y2="186.89" xlink:href="#_ÂÁ_Ï_ÌÌ_È_ËÂÌÚ_54"/><linearGradient id="_ÂÁ_Ï_ÌÌ_È_ËÂÌÚ_54-3" x1="129.6" y1="186.89" x2="129.6" y2="135.31" xlink:href="#_ÂÁ_Ï_ÌÌ_È_ËÂÌÚ_54"/><linearGradient id="_ÂÁ_Ï_ÌÌ_È_ËÂÌÚ_143" x1="286.15" y1="86.54" x2="286.15" y2="63.22" gradientTransform="translate(1.72 10.57) rotate(-0.29)" gradientUnits="userSpaceOnUse"><stop offset="0" stop-color="#d4e2ff"/><stop offset="1"/></linearGradient><linearGradient id="_ÂÁ_Ï_ÌÌ_È_ËÂÌÚ_134" x1="266.76" y1="23.91" x2="312.45" y2="23.91" gradientTransform="translate(1.72 10.57) rotate(-0.29)" gradientUnits="userSpaceOnUse"><stop offset="0"/><stop offset="1" stop-color="#d4e2ff"/></linearGradient><linearGradient id="_ÂÁ_Ï_ÌÌ_È_ËÂÌÚ_129" x1="124.79" y1="259.28" x2="135.87" y2="171.1" gradientUnits="userSpaceOnUse"><stop offset="0" stop-color="#cbc1f7"/><stop offset="1" stop-color="#d4bef1"/></linearGradient><linearGradient id="_ÂÁ_Ï_ÌÌ_È_ËÂÌÚ_28-3" x1="101.96" y1="255.9" x2="99.46" y2="231.32" gradientTransform="matrix(1, 0, 0, 1, 0, 0)" xlink:href="#_ÂÁ_Ï_ÌÌ_È_ËÂÌÚ_28"/><linearGradient id="_ÂÁ_Ï_ÌÌ_È_ËÂÌÚ_153-2" x1="130.97" y1="256.16" x2="130.97" y2="175.05" gradientTransform="matrix(1, 0, 0, 1, 0, 0)" xlink:href="#_ÂÁ_Ï_ÌÌ_È_ËÂÌÚ_153"/><linearGradient id="_ÂÁ_Ï_ÌÌ_È_ËÂÌÚ_46-2" x1="156.64" y1="313.73" x2="165.73" y2="241.39" gradientTransform="translate(-24.46 74.37) rotate(-8.66)" xlink:href="#_ÂÁ_Ï_ÌÌ_È_ËÂÌÚ_46"/><linearGradient id="_ÂÁ_Ï_ÌÌ_È_ËÂÌÚ_36-2" x1="143" y1="255.04" x2="186.15" y2="255.04" gradientTransform="translate(-24.46 74.37) rotate(-8.66)" xlink:href="#_ÂÁ_Ï_ÌÌ_È_ËÂÌÚ_36"/><linearGradient id="_ÂÁ_Ï_ÌÌ_È_ËÂÌÚ_153-3" x1="163.95" y1="311.56" x2="163.95" y2="238.78" gradientTransform="translate(-24.46 74.37) rotate(-8.66)" xlink:href="#_ÂÁ_Ï_ÌÌ_È_ËÂÌÚ_153"/><linearGradient id="_ÂÁ_Ï_ÌÌ_È_ËÂÌÚ_46-3" x1="181.94" y1="234.01" x2="201.68" y2="76.85" gradientTransform="translate(-27.1 145.2) rotate(-16.58)" xlink:href="#_ÂÁ_Ï_ÌÌ_È_ËÂÌÚ_46"/><linearGradient id="_ÂÁ_Ï_ÌÌ_È_ËÂÌÚ_153-4" x1="228.79" y1="208.52" x2="228.79" y2="127.2" gradientTransform="translate(-27.1 145.2) rotate(-16.58)" xlink:href="#_ÂÁ_Ï_ÌÌ_È_ËÂÌÚ_153"/><linearGradient id="_ÂÁ_Ï_ÌÌ_È_ËÂÌÚ_28-4" x1="136.73" y1="184" x2="213.8" y2="184" gradientTransform="translate(-27.1 145.2) rotate(-16.58)" xlink:href="#_ÂÁ_Ï_ÌÌ_È_ËÂÌÚ_28"/><radialGradient id="_ÂÁ_Ï_ÌÌ_È_ËÂÌÚ_91" cx="176.82" cy="219.2" r="58.24" gradientTransform="translate(-27.1 145.2) rotate(-16.58)" xlink:href="#_ÂÁ_Ï_ÌÌ_È_ËÂÌÚ_17"/><linearGradient id="_ÂÁ_Ï_ÌÌ_È_ËÂÌÚ_36-3" x1="220.04" y1="126.94" x2="239.88" y2="126.94" gradientTransform="translate(-27.1 145.2) rotate(-16.58)" xlink:href="#_ÂÁ_Ï_ÌÌ_È_ËÂÌÚ_36"/><linearGradient id="_ÂÁ_Ï_ÌÌ_È_ËÂÌÚ_416-2" x1="194.54" y1="101.6" x2="194.54" y2="76.64" gradientTransform="translate(-27.1 145.2) rotate(-16.58)" xlink:href="#_ÂÁ_Ï_ÌÌ_È_ËÂÌÚ_416"/><linearGradient id="_ÂÁ_Ï_ÌÌ_È_ËÂÌÚ_134-2" x1="140.74" y1="156.92" x2="204.69" y2="156.92" gradientTransform="translate(-27.1 145.2) rotate(-16.58)" xlink:href="#_ÂÁ_Ï_ÌÌ_È_ËÂÌÚ_134"/><linearGradient id="_ÂÁ_Ï_ÌÌ_È_ËÂÌÚ_143-2" x1="175.89" y1="230.83" x2="175.89" y2="223.45" gradientTransform="translate(-27.1 145.2) rotate(-16.58)" xlink:href="#_ÂÁ_Ï_ÌÌ_È_ËÂÌÚ_143"/><linearGradient id="_ÂÁ_Ï_ÌÌ_È_ËÂÌÚ_46-4" x1="279.03" y1="152.13" x2="293.93" y2="33.54" gradientTransform="matrix(0.86, -0.51, 0.51, 0.86, -16.11, 291.19)" xlink:href="#_ÂÁ_Ï_ÌÌ_È_ËÂÌÚ_46"/><linearGradient id="_ÂÁ_Ï_ÌÌ_È_ËÂÌÚ_28-5" x1="303.56" y1="152.85" x2="303.56" y2="130.02" gradientTransform="matrix(0.86, -0.51, 0.51, 0.86, -16.11, 291.19)" xlink:href="#_ÂÁ_Ï_ÌÌ_È_ËÂÌÚ_28"/><linearGradient id="_ÂÁ_Ï_ÌÌ_È_ËÂÌÚ_153-5" x1="289.49" y1="154.8" x2="289.49" y2="29.37" gradientTransform="matrix(0.86, -0.51, 0.51, 0.86, -16.11, 291.19)" xlink:href="#_ÂÁ_Ï_ÌÌ_È_ËÂÌÚ_153"/><linearGradient id="_ÂÁ_Ï_ÌÌ_È_ËÂÌÚ_46-5" x1="80.02" y1="215.04" x2="88.21" y2="149.85" gradientTransform="matrix(-0.8, 0.6, 0.6, 0.8, 295.57, 80.13)" xlink:href="#_ÂÁ_Ï_ÌÌ_È_ËÂÌÚ_46"/><linearGradient id="_ÂÁ_Ï_ÌÌ_È_ËÂÌÚ_28-6" x1="94.41" y1="215.95" x2="94.41" y2="156.9" gradientTransform="matrix(-0.8, 0.6, 0.6, 0.8, 295.57, 80.13)" xlink:href="#_ÂÁ_Ï_ÌÌ_È_ËÂÌÚ_28"/><linearGradient id="_ÂÁ_Ï_ÌÌ_È_ËÂÌÚ_416-3" x1="95.62" y1="197.67" x2="95.62" y2="174.84" gradientTransform="matrix(-0.8, 0.6, 0.6, 0.8, 295.57, 80.13)" xlink:href="#_ÂÁ_Ï_ÌÌ_È_ËÂÌÚ_416"/><linearGradient id="_ÂÁ_Ï_ÌÌ_È_ËÂÌÚ_46-6" x1="97.15" y1="196.59" x2="101.99" y2="158.03" gradientTransform="matrix(-0.8, 0.6, 0.6, 0.8, 295.57, 80.13)" xlink:href="#_ÂÁ_Ï_ÌÌ_È_ËÂÌÚ_46"/><linearGradient id="_ÂÁ_Ï_ÌÌ_È_ËÂÌÚ_46-7" x1="230.32" y1="267.1" x2="241.99" y2="174.19" gradientTransform="translate(-39.42 180.01) rotate(-19.16)" xlink:href="#_ÂÁ_Ï_ÌÌ_È_ËÂÌÚ_46"/><linearGradient id="_ÂÁ_Ï_ÌÌ_È_ËÂÌÚ_153-6" x1="246.35" y1="269.79" x2="246.35" y2="175.83" gradientTransform="translate(-39.42 180.01) rotate(-19.16)" xlink:href="#_ÂÁ_Ï_ÌÌ_È_ËÂÌÚ_153"/><linearGradient id="_ÂÁ_Ï_ÌÌ_È_ËÂÌÚ_28-7" x1="81.97" y1="266.63" x2="63.35" y2="241.51" gradientTransform="matrix(1, 0, 0, 1, 0, 0)" xlink:href="#_ÂÁ_Ï_ÌÌ_È_ËÂÌÚ_28"/><linearGradient id="_ÂÁ_Ï_ÌÌ_È_ËÂÌÚ_29" x1="70.9" y1="267.31" x2="75.59" y2="229.92" gradientUnits="userSpaceOnUse"><stop offset="0" stop-color="#e8dcf7"/><stop offset="1" stop-color="#cbc1f7"/></linearGradient><linearGradient id="_ÂÁ_Ï_ÌÌ_È_ËÂÌÚ_28-8" x1="79.81" y1="242.19" x2="74.02" y2="234.38" gradientTransform="matrix(1, 0, 0, 1, 0, 0)" xlink:href="#_ÂÁ_Ï_ÌÌ_È_ËÂÌÚ_28"/><linearGradient id="_ÂÁ_Ï_ÌÌ_È_ËÂÌÚ_46-8" x1="69.19" y1="242.29" x2="70.83" y2="229.26" gradientTransform="matrix(1, 0, 0, 1, 0, 0)" xlink:href="#_ÂÁ_Ï_ÌÌ_È_ËÂÌÚ_46"/><linearGradient id="_ÂÁ_Ï_ÌÌ_È_ËÂÌÚ_28-9" x1="67.6" y1="238" x2="92.88" y2="256.57" gradientTransform="matrix(1, 0, 0, 1, 0, 0)" xlink:href="#_ÂÁ_Ï_ÌÌ_È_ËÂÌÚ_28"/><linearGradient id="_ÂÁ_Ï_ÌÌ_È_ËÂÌÚ_8-2" x1="52.72" y1="242.19" x2="52.72" y2="135.63" gradientTransform="matrix(1, 0, 0, 1, 0, 0)" xlink:href="#_ÂÁ_Ï_ÌÌ_È_ËÂÌÚ_8"/><linearGradient id="_ÂÁ_Ï_ÌÌ_È_ËÂÌÚ_65-2" x1="16.29" y1="227.83" x2="36.58" y2="125.88" gradientTransform="matrix(1, 0, 0, 1, 0, 0)" xlink:href="#_ÂÁ_Ï_ÌÌ_È_ËÂÌÚ_65"/><linearGradient id="_ÂÁ_Ï_ÌÌ_È_ËÂÌÚ_8-3" x1="28.22" y1="228.73" x2="44.19" y2="148.47" gradientTransform="matrix(1, 0, 0, 1, 0, 0)" xlink:href="#_ÂÁ_Ï_ÌÌ_È_ËÂÌÚ_8"/><linearGradient id="_ÂÁ_Ï_ÌÌ_È_ËÂÌÚ_33" x1="29.55" y1="228.99" x2="45.35" y2="149.6" gradientUnits="userSpaceOnUse"><stop offset="0" stop-color="#d93de3"/><stop offset="1" stop-color="#e652ad"/></linearGradient><linearGradient id="_ÂÁ_Ï_ÌÌ_È_ËÂÌÚ_27" x1="9.91" y1="183.53" x2="63.69" y2="183.53" gradientUnits="userSpaceOnUse"><stop offset="0"/><stop offset="1" stop-color="#ff955c"/></linearGradient><linearGradient id="_ÂÁ_Ï_ÌÌ_È_ËÂÌÚ_27-2" x1="59.08" y1="167.84" x2="73.42" y2="167.84" xlink:href="#_ÂÁ_Ï_ÌÌ_È_ËÂÌÚ_27"/><linearGradient id="_ÂÁ_Ï_ÌÌ_È_ËÂÌÚ_27-3" x1="36.88" y1="139.37" x2="59.72" y2="139.37" xlink:href="#_ÂÁ_Ï_ÌÌ_È_ËÂÌÚ_27"/></defs><title>win</title><g class="cls-1"><g id="Camada_1" data-name="Camada 1"><path class="cls-2" d="M156.71,22.36s-16.54,11.85-23.23,38.35,31.81-6.22,31.81-6.22Z" transform="translate(-9.57 -11.75)"/><path class="cls-3" d="M142.15,50s12.59-31.82,24.19-36.85,28.84,4.87,28.84,4.87Z" transform="translate(-9.57 -11.75)"/><path class="cls-4" d="M285.48,157.74c-30.32,32.1-146.67,15.69-162.93-6.4-6.48-8.8-9.67-19.36-10.08-30.66v0C110.76,72.29,160,10.39,221,15.17,262.38,18.42,289.75,58.4,297,96.84,301.52,120.86,298.19,144.29,285.48,157.74Z" transform="translate(-9.57 -11.75)"/><path class="cls-5" d="M259.5,171c-15.39,3.49-38,5.27-52.75,4.4-27.44-1.61-47-5.82-57.84-10.88h0c-7.11-3.33-10.42-7-9.7-10.53.43-2.15,5.93-3.75,14.5-4.82,25.18-3.08,76.83-1.48,104.38,4.32,2.37.51,4.57,1,6.54,1.6.44.11.83.24,1.23.37l.23.06c4.73,1.45,8.05,3.09,9.45,4.94a3.51,3.51,0,0,1,.71,1.4C277.08,165.48,269.94,168.62,259.5,171Z" transform="translate(-9.57 -11.75)"/><path class="cls-6" d="M285.48,157.74c-30.32,32.1-146.67,15.69-162.93-6.4-6.48-8.8-9.67-19.36-10.08-30.66v0s7,15.72,30.51,20,93,4.76,107.61-4.82,12-57.44,12-57.44L297,96.84C301.52,120.86,298.19,144.29,285.48,157.74Z" transform="translate(-9.57 -11.75)"/><path class="cls-7" d="M259.5,171c-11.53-5.83-45.32-21.15-73.35-16.52-34.4,5.66-37.24,10-37.24,10h0c-7.11-3.33-10.42-7-9.7-10.53.43-2.15,5.93-3.75,14.5-4.82,25.18-3.08,76.83-1.48,104.38,4.32,2.87.69,5.47,1.34,7.77,2l.23.06c4.73,1.45,8.05,3.09,9.45,4.94a3.51,3.51,0,0,1,.71,1.4C277.08,165.48,269.94,168.62,259.5,171Z" transform="translate(-9.57 -11.75)"/><path class="cls-8" d="M264.63,155.05c-6.85,5.84-38.26,9.41-56,8.37-31.78-1.87-50.81-8-54.94-14.29C181,145.79,239.64,148,264.63,155.05Z" transform="translate(-9.57 -11.75)"/><path class="cls-9" d="M112.06,122.83c4.12,14.78,104.62,25.87,131.87,2.06s7.88-109.64-45.89-105C146.78,24.23,104.57,96.06,112.06,122.83Z" transform="translate(-9.57 -11.75)"/><path class="cls-10" d="M112.48,120.65c4.13,14.77,104.62,25.86,131.87,2s7.88-109.64-45.88-105C147.21,22,105,93.87,112.48,120.65Z" transform="translate(-9.57 -11.75)"/><path class="cls-11" d="M252.55,32.33S247.34,82,278.07,99.43c0,0,15.05,1.55,23.75-7.63,0,0-13.55,12.87-28-.39s-11.15-50-.31-62,26.6-8.95,26.6-8.95l-6.32-5.63S270.59,10.2,252.55,32.33Z" transform="translate(-9.57 -11.75)"/><path class="cls-12" d="M293.81,14.81s-17.06-1.49-28.87,18.35C252.39,54.24,261.77,90.51,277.17,96s30.63-53.4,30.63-53.4l-9-23.34A10.62,10.62,0,0,0,293.81,14.81Z" transform="translate(-9.57 -11.75)"/><path class="cls-13" d="M316.09,64.76c-2.13,11.36-6.71,20.66-12.86,26.55l-.05,0-1.72,1.54h0a22.41,22.41,0,0,1-17.28,5.23c-20.77-2.54-23.71-32.58-21.36-49.62,2.75-19.69,19.52-31.59,32.92-29.93C311.67,20.55,320.28,42.53,316.09,64.76Z" transform="translate(-9.57 -11.75)"/><path class="cls-14" d="M111.91,107.11A76.28,76.28,0,0,0,83.7,121.65c-13.71,11.25-17.32,25-.41,23.76l7.83-4.6s-10.1,1.41-8.76-8.87S111.55,109,111.55,109Z" transform="translate(-9.57 -11.75)"/><path class="cls-15" d="M80.31,137c-5.08,5.16,4.82,9.85,13.13,11.22,9.32,1.53,26.1.51,25.61-9S92.22,124.9,80.31,137Z" transform="translate(-9.57 -11.75)"/><path class="cls-16" d="M80.89,138c-.37,1.53,33.07,3.72,34.18-2.15S83.74,126.19,80.89,138Z" transform="translate(-9.57 -11.75)"/><path class="cls-17" d="M198.93,77.76c-.72,1,13.2-8,35.37.62C236.48,79.23,213.16,58.28,198.93,77.76Z" transform="translate(-9.57 -11.75)"/><path class="cls-18" d="M129,77.85c-.72,1,6.6-6.06,26.06-1.34C157.38,77.06,141.82,60.49,129,77.85Z" transform="translate(-9.57 -11.75)"/><path class="cls-19" d="M140.43,59c2.29,3.45,21.33-6.44,42.28-4.33s43.89,22.68,61,20.12c13.63-2-4.35-51-39-55.41S138.16,55.52,140.43,59Z" transform="translate(-9.57 -11.75)"/><path class="cls-20" d="M134.24,125.08A147.07,147.07,0,0,1,183,122.3c26.93,3,31.27,5.86,30.78,8.4s-20.08,7.73-44.8,5.1S134.24,125.08,134.24,125.08Z" transform="translate(-9.57 -11.75)"/><path class="cls-21" d="M113.23,116.72s-2.76-19,14.37-45.84c0,0,3.68-4.22,5.37-2.7S117.51,89.18,113.23,116.72Z" transform="translate(-9.57 -11.75)"/><path class="cls-22" d="M266.3,72.47s2.3,18.42,15.86,22.34S306.69,88.89,310.08,75c0,0-4.19,12-21.84,9S266.3,72.47,266.3,72.47Z" transform="translate(-9.57 -11.75)"/><path class="cls-23" d="M268.63,37.63c.17,3.43,25-3.83,32.91-2.82s11.31,10.69,12.57,10.46-2.21-22.89-16.91-24.5S268.51,35.24,268.63,37.63Z" transform="translate(-9.57 -11.75)"/><path class="cls-24" d="M151.89,96.85s24.7.87,38.7-2.66c0,0-3.31,23.15-19.35,23.15S151.89,96.85,151.89,96.85Z" transform="translate(-9.57 -11.75)"/><path class="cls-25" d="M150.92,233.55s-41.46,23.53-51.22,22.58S94.29,233,94.29,233c1.29-1.53,2.74-3.11,4.28-4.74l0,0c15.59-16.45,42.19-37.42,57.48-47.4v0c6.44-4.2,10.87-6.46,11.62-5.62C173.37,181.52,150.92,233.55,150.92,233.55Z" transform="translate(-9.57 -11.75)"/><path class="cls-26" d="M94.29,233s5.42-4.55,12.13,1.57-.21,20.81-6.71,21.55S89.3,242.54,94.29,233Z" transform="translate(-9.57 -11.75)"/><path class="cls-27" d="M150.92,233.55s-41.46,23.53-51.22,22.58S94.29,233,94.29,233c1.29-1.53,2.74-3.11,4.28-4.74l0,0s10.14,6,28.81,3.13,28.67-50.53,28.67-50.53v0c6.44-4.2,10.87-6.46,11.62-5.62C173.37,181.52,150.92,233.55,150.92,233.55Z" transform="translate(-9.57 -11.75)"/><path class="cls-28" d="M199.32,310.26c.62,8.81-8.93,38.79-18.58,48,0,0,0,0,0,0-1.87,1.76-3.73,2.77-5.53,2.69-8-.32-17.41-37-21-57.87-1.36-8.08-1.85-13.79-1-14.15C160,286,198.56,299.77,199.32,310.26Z" transform="translate(-9.57 -11.75)"/><path class="cls-29" d="M199.75,313.1s-8.75,6.64-24.8,1.44c-12.54-4.06-23.22-21.89-21.76-25.56S203.08,298.77,199.75,313.1Z" transform="translate(-9.57 -11.75)"/><path class="cls-30" d="M199.32,310.26c.62,8.81-8.93,38.79-18.58,48,6.69-10.57,4.07-29.63-2.43-37.55-4.9-6-18-14.05-24.08-17.59-1.36-8.08-1.85-13.79-1-14.15C160,286,198.56,299.77,199.32,310.26Z" transform="translate(-9.57 -11.75)"/><path class="cls-31" d="M168.84,323.53c-2.46-.18-.81,6.47-.35,6.84s1.61-1.88,1.71-3.7C170.3,325.05,169.71,323.6,168.84,323.53Z" transform="translate(-9.57 -11.75)"/><path class="cls-32" d="M256.84,256.72c2.43,33-11.35,51.6-43.27,60.63-31.28,8.85-60.47-19.21-62.23-61.84-1.12-27.22-.35-51.89,8.76-69.81v-.06a48,48,0,0,1,24.63-23.11c9.21-4,18.65-1.2,27.55,5.63C235.48,186,255,231.28,256.84,256.72Z" transform="translate(-9.57 -11.75)"/><path class="cls-33" d="M222.8,203.5s10.51,23.19,15.31,39.31c5.7,19.11.33,40.89.33,40.89l18.65-21.39s.73-13.83-4.21-26.28-7.72-18-7.72-18Z" transform="translate(-9.57 -11.75)"/><path class="cls-34" d="M150.94,260.92s.26-25.57,22.65-32.24c26.83-8,53.75,16.29,58.13,36.88s3.84,41.28-21.27,49.62C210.45,315.18,162.67,328.25,150.94,260.92Z" transform="translate(-9.57 -11.75)"/><path class="cls-35" d="M152.05,263.71s.26-25.58,22.65-32.24c26.83-8,53.74,16.28,58.13,36.88s3.84,41.27-21.27,49.61C211.56,318,163.78,331,152.05,263.71Z" transform="translate(-9.57 -11.75)"/><path class="cls-36" d="M242.89,225.56c-1.16.34-2.69-.26-4.45-1.56-7.85-5.81-20.19-25.66-23.7-37.69-1.36-4.66-1.39-8.15.69-9.18,3.4-1.69,14.28,8.23,22.87,24.17C243.29,210.58,247.86,224.08,242.89,225.56Z" transform="translate(-9.57 -11.75)"/><path class="cls-37" d="M238.44,224c-7.85-5.81-20.19-25.66-23.7-37.69,4.87,3.51,11.76,11.55,17.6,22.4A67.48,67.48,0,0,1,238.44,224Z" transform="translate(-9.57 -11.75)"/><path class="cls-38" d="M212,168s-29.12,22.13-42.13,24.46c-12.62,2.27-10.21-6.43-10.07-6.92l0,0v0a48,48,0,0,1,24.64-23.11C193.62,158.38,203.06,161.15,212,168Z" transform="translate(-9.57 -11.75)"/><path class="cls-39" d="M154.26,260.71c5.3,5.43,15.42-6.56,31.67-9.43s27.17,2.93,31-.69S199.58,227.71,175.16,234C155.66,238.94,152.46,258.86,154.26,260.71Z" transform="translate(-9.57 -11.75)"/><path class="cls-40" d="M189.24,313.92a28.7,28.7,0,0,0,19.59,1.85c11-2.86,13.07-9.22,13.07-9.22s-5.45-.67-12.7,3.13S194.64,314.55,189.24,313.92Z" transform="translate(-9.57 -11.75)"/><path class="cls-31" d="M196.6,193.45c-1.89.61.3,20.15,2,20.31s2.61-4.38,2.31-10.91S198.42,192.85,196.6,193.45Z" transform="translate(-9.57 -11.75)"/><path class="cls-41" d="M330.31,251.53c3,12.41-8.66,20.79-13.75,20.39-4.43-.34-19.1-5.34-38.4-19l-.05,0q-4.26-3-8.8-6.6c-23.59-18.7-57-59.11-46.44-63h0C253.58,171.84,327.33,239.15,330.31,251.53Z" transform="translate(-9.57 -11.75)"/><path class="cls-42" d="M306.67,269s-5.58-9.73.93-18.19,21.49-2,21.49-2,6.51,10.77-4.93,17.82S306.67,269,306.67,269Z" transform="translate(-9.57 -11.75)"/><path class="cls-43" d="M330.31,251.53c3,12.41-8.66,20.79-13.75,20.39-4.43-.34-19.1-5.34-38.4-19,1.75,1.09,14.52,8.78,19.95,5.56,5.83-3.49,7.44-26.41-24.17-53.66-30.62-26.43-49.85-21.9-51-21.59C253.58,171.84,327.33,239.15,330.31,251.53Z" transform="translate(-9.57 -11.75)"/><path class="cls-44" d="M312.15,254.78c4.07-4.18,14-4.83,19-2.5s21.4,14.86,30.27,38.4c0,0-1.53,13.86-10.9,16.58-7.11,2.07-19.48-15.39-28.9-27.44S305.46,261.67,312.15,254.78Z" transform="translate(-9.57 -11.75)"/><path class="cls-45" d="M352,307.11s-22.39-44.44-43.84-41c0,0,4,7,17,20.94S347.44,308.49,352,307.11Z" transform="translate(-9.57 -11.75)"/><path class="cls-46" d="M336.93,284.43s.33,8.77-1.69,11.73a8.48,8.48,0,0,1-4.88,3.54l-3.21-25.33S334.24,280.12,336.93,284.43Z" transform="translate(-9.57 -11.75)"/><path class="cls-47" d="M327.15,274.37s-10.29-9.28-18.86-7.06c0,0-1.65,10.58,17.31,32.9,0,0,6.76,2,8.24-6.11C333.84,294.1,331.94,283.1,327.15,274.37Z" transform="translate(-9.57 -11.75)"/><path class="cls-31" d="M320.53,273.32c2.24-1.66,6.18,10.77,4.84,11.4S318.67,274.7,320.53,273.32Z" transform="translate(-9.57 -11.75)"/><path class="cls-31" d="M251.24,219.05c-2.72,4.95,6,8.65,8.25,7.89S253.1,215.67,251.24,219.05Z" transform="translate(-9.57 -11.75)"/><path class="cls-31" d="M261.29,228.78c-.82.62,2.71,3.75,3.56,4.27,1.63,1,4.91,1.45,5.06.84S262.24,228.07,261.29,228.78Z" transform="translate(-9.57 -11.75)"/><path class="cls-31" d="M113.4,217.4c.44,1.42,10.21-3,10.23-7.2S112.77,215.35,113.4,217.4Z" transform="translate(-9.57 -11.75)"/><path class="cls-48" d="M288.81,351.15c-1.72,1.72-5,1.68-9.09.4-4.51-1.41-10.05-4.27-15.82-7.84l0,0-.06,0c-16.05-9.94-33.68-25.33-34.62-29.82-3.24-15.55,12.48-35.49,22.51-45.37,3.92-3.85,7-6.16,7.67-6.09C261.87,262.67,297.71,342.23,288.81,351.15Z" transform="translate(-9.57 -11.75)"/><path class="cls-49" d="M288.81,351.15c-1.72,1.72-5,1.68-9.09.4l-15.82-7.84c1.49.64,18.47,7.43,12.72-17-6-25.61-25.51-56.22-25.51-56.22l.58-2c3.92-3.85,7-6.16,7.67-6.09C261.87,262.67,297.71,342.23,288.81,351.15Z" transform="translate(-9.57 -11.75)"/><path class="cls-31" d="M241.68,308.63c-3.77,2.33,5.62,10.27,6.68,10.32s.36-4.42-1.4-7.18C245.39,309.31,243,307.82,241.68,308.63Z" transform="translate(-9.57 -11.75)"/><path class="cls-31" d="M249.73,319.8c-.56.89,2.35,3.36,2.78,2.47a2.73,2.73,0,0,0-.89-2.82A1.64,1.64,0,0,0,249.73,319.8Z" transform="translate(-9.57 -11.75)"/><path class="cls-31" d="M65.05,236.94c.11,1.68,12-3.81,12-5.8S64.86,234.11,65.05,236.94Z" transform="translate(-9.57 -11.75)"/><path class="cls-50" d="M41.66,257.59a20.4,20.4,0,0,0,2.24,7.65s5.75,3.94,17,3.5,34.39-12.24,37.61-14.4,4.91-8.72,4.91-8.72Z" transform="translate(-9.57 -11.75)"/><path class="cls-51" d="M102.54,233.6c-5.7-2.29-20.35.85-29.32,4.15S49.6,251.17,41.66,257.59c0,0,.17,6.11,11.9,7.54s43.27-11.85,48.54-17.62S102.54,233.6,102.54,233.6Z" transform="translate(-9.57 -11.75)"/><path class="cls-52" d="M61.9,243.47s19.92-2.68,30.08-10.3C92,233.17,74.85,232.44,61.9,243.47Z" transform="translate(-9.57 -11.75)"/><path class="cls-53" d="M89,233.6s-11.68,6.76-24,7.27c0,0-12.51.16-13.2-1.29s-1.09-7,2.13-8.33S78.74,227.41,89,233.6Z" transform="translate(-9.57 -11.75)"/><path class="cls-54" d="M63.79,243.18a88.08,88.08,0,0,1,31,9.26l1.89-1.05S85,243.19,63.79,243.18Z" transform="translate(-9.57 -11.75)"/><path class="cls-55" d="M36.88,135.88A32.17,32.17,0,0,1,55.12,139S75.4,151.1,73.65,190.37c-1.78,39.72-19.21,48.3-19.21,48.3s-13.32,5.6-20.25,2.66S36.88,135.88,36.88,135.88Z" transform="translate(-9.57 -11.75)"/><ellipse class="cls-56" cx="27.31" cy="176.85" rx="27.31" ry="52.73"/><ellipse class="cls-57" cx="26.43" cy="176.85" rx="26.43" ry="52.73"/><path class="cls-58" d="M57.36,188.61c0,22.92-9.46,41.49-21.15,41.49a11.3,11.3,0,0,1-4.62-1c-9.46-4.12-16.53-20.69-16.53-40.49,0-22.92,9.47-41.51,21.15-41.51a12.19,12.19,0,0,1,7.07,2.38C51.49,155.19,57.36,170.56,57.36,188.61Z" transform="translate(-9.57 -11.75)"/><path class="cls-59" d="M57.36,188.61c0,22.92-9.46,41.49-21.15,41.49a11.3,11.3,0,0,1-4.62-1c-8.18-5.73-14-21.06-14-39.1,0-22.92,9.48-41.51,21.16-41.51a11.31,11.31,0,0,1,4.58,1C51.49,155.19,57.36,170.56,57.36,188.61Z" transform="translate(-9.57 -11.75)"/><path class="cls-60" d="M9.91,196.9l49.17-39s4.11,10.56,4.61,20.62l-52,30.58S10.15,200.73,9.91,196.9Z" transform="translate(-9.57 -11.75)"/><path class="cls-61" d="M59.08,157.93l9.58-.81s4.43,10.92,4.76,20.49l-9.73.94S62.14,164.84,59.08,157.93Z" transform="translate(-9.57 -11.75)"/><path class="cls-62" d="M56.64,225l8.91.65s-5.24,10.11-11.11,13L46,238.34A29.83,29.83,0,0,0,56.64,225Z" transform="translate(-9.57 -11.75)"/><path class="cls-63" d="M47.54,140s8.05,1.07,12.18,2.92a25.07,25.07,0,0,0-4.23-3.71,35.39,35.39,0,0,0-18.61-3.37A21.27,21.27,0,0,1,47.54,140Z" transform="translate(-9.57 -11.75)"/><path class="cls-31" d="M63.26,260.78s6.75-4,13.68-3.58C76.94,257.2,67.49,261.54,63.26,260.78Z" transform="translate(-9.57 -11.75)"/></g></g></svg>